<svg width="48" height="48" viewBox="0 0 48 48" fill="none" xmlns="http://www.w3.org/2000/svg">
<path d="M14.0977 22.6248V14.6248C14.0977 11.9726 15.1512 9.42905 17.0266 7.55369C18.902 5.67832 21.4455 4.62476 24.0977 4.62476C26.7498 4.62476 29.2934 5.67832 31.1687 7.55369C33.0441 9.42905 34.0977 11.9726 34.0977 14.6248V22.6248M10.0977 22.6248H38.0977C40.3068 22.6248 42.0977 24.4156 42.0977 26.6248V40.6248C42.0977 42.8339 40.3068 44.6248 38.0977 44.6248H10.0977C7.88852 44.6248 6.09766 42.8339 6.09766 40.6248V26.6248C6.09766 24.4156 7.88852 22.6248 10.0977 22.6248Z" stroke="#C1F17E" stroke-width="3" stroke-linecap="round" stroke-linejoin="round"/>
</svg>
