<svg width="16" height="16" viewBox="0 0 16 16" fill="none" xmlns="http://www.w3.org/2000/svg">
<path d="M7.55181 2.24181C7.73523 1.87023 8.2651 1.87023 8.44852 2.24181L9.94394 5.27138C10.0167 5.4188 10.1573 5.52103 10.32 5.54481L13.6649 6.03372C14.0749 6.09364 14.2383 6.59756 13.9415 6.88664L11.5219 9.24333C11.404 9.3582 11.3501 9.52377 11.378 9.68603L11.9489 13.0148C12.0189 13.4233 11.5902 13.7348 11.2233 13.5419L8.23289 11.9692C8.0872 11.8926 7.91313 11.8926 7.76744 11.9692L4.77698 13.5419C4.41016 13.7348 3.98139 13.4233 4.05145 13.0148L4.62237 9.68603C4.6502 9.52377 4.59637 9.3582 4.47843 9.24333L2.05884 6.88664C1.76204 6.59756 1.92543 6.09364 2.33539 6.03372L5.68035 5.54481C5.84302 5.52103 5.98362 5.4188 6.05639 5.27137L7.55181 2.24181Z" fill="#C1F17E"/>
</svg>
