<!DOCTYPE svg PUBLIC "-//W3C//DTD SVG 1.1//EN" "http://www.w3.org/Graphics/SVG/1.1/DTD/svg11.dtd">
<!-- Uploaded to: SVG Repo, www.svgrepo.com, Transformed by: SVG Repo Mixer Tools -->
<svg fill="#a7ee43" height="256px" width="256px" version="1.1" id="Capa_1" xmlns="http://www.w3.org/2000/svg" xmlns:xlink="http://www.w3.org/1999/xlink" viewBox="0 0 490.00 490.00" xml:space="preserve" stroke="#a7ee43" stroke-width="0.0049">
<g id="SVGRepo_bgCarrier" stroke-width="0"/>
<g id="SVGRepo_tracerCarrier" stroke-linecap="round" stroke-linejoin="round"/>
<g id="SVGRepo_iconCarrier"> <g> <g> <path d="M311.5,184.4c0,36.1-29.2,65.3-65.3,65.3s-65.3-29.2-65.3-65.3s29.2-65.3,65.3-65.3S311.5,148.4,311.5,184.4z M245,0 C109.9,0,0,109.9,0,245s109.9,245,245,245s245-109.9,245-245S380.1,0,245,0z M357.3,404.7c-8.2-65.7-35.2-133-111.1-133 c-76.5,0-103.3,68.3-111.3,134.5C83.5,371,49.7,311.9,49.7,245c0-107.7,87.6-195.3,195.3-195.3S440.3,137.3,440.3,245 C440.3,310.9,407.5,369.3,357.3,404.7z"/> </g> </g> </g>
</svg>