<svg width="1162" height="868" viewBox="0 0 1162 868" fill="none" xmlns="http://www.w3.org/2000/svg">
<g filter="url(#filter0_ddd_3_3265)">
<mask id="path-1-outside-1_3_3265" maskUnits="userSpaceOnUse" x="67" y="15" width="1028" height="674" fill="black">
<rect fill="white" x="67" y="15" width="1028" height="674"/>
<path d="M69 33C69 24.1634 76.1634 17 85 17H1077C1085.84 17 1093 24.1634 1093 33V671C1093 679.837 1085.84 687 1077 687H85C76.1634 687 69 679.837 69 671V33Z"/>
</mask>
<path d="M69 33C69 24.1634 76.1634 17 85 17H1077C1085.84 17 1093 24.1634 1093 33V671C1093 679.837 1085.84 687 1077 687H85C76.1634 687 69 679.837 69 671V33Z" fill="#1E1E1E"/>
<path d="M85 18.5H1077V15.5H85V18.5ZM1091.5 33V671H1094.5V33H1091.5ZM1077 685.5H85V688.5H1077V685.5ZM70.5 671V33H67.5V671H70.5ZM85 685.5C76.9919 685.5 70.5 679.008 70.5 671H67.5C67.5 680.665 75.335 688.5 85 688.5V685.5ZM1091.5 671C1091.5 679.008 1085.01 685.5 1077 685.5V688.5C1086.66 688.5 1094.5 680.665 1094.5 671H1091.5ZM1077 18.5C1085.01 18.5 1091.5 24.9919 1091.5 33H1094.5C1094.5 23.335 1086.66 15.5 1077 15.5V18.5ZM85 15.5C75.335 15.5 67.5 23.335 67.5 33H70.5C70.5 24.9919 76.9919 18.5 85 18.5V15.5Z" fill="#D6DDE6" fill-opacity="0.2" mask="url(#path-1-outside-1_3_3265)"/>
<path opacity="0.5" d="M109 131C109 126.582 112.582 123 117 123H284C288.418 123 292 126.582 292 131V157C292 161.418 288.418 165 284 165H117C112.582 165 109 161.418 109 157V131Z" fill="#D6DDE6" fill-opacity="0.2"/>
<path opacity="0.5" d="M109 197C109 192.582 112.582 189 117 189H249C253.418 189 257 192.582 257 197V223C257 227.418 253.418 231 249 231H117C112.582 231 109 227.418 109 223V197Z" fill="#D6DDE6" fill-opacity="0.2"/>
<path opacity="0.5" d="M109 263C109 258.582 112.582 255 117 255H266C270.418 255 274 258.582 274 263V289C274 293.418 270.418 297 266 297H117C112.582 297 109 293.418 109 289V263Z" fill="#D6DDE6" fill-opacity="0.2"/>
<path opacity="0.3" d="M324 139C324 130.163 331.163 123 340 123H1037C1045.84 123 1053 130.163 1053 139V634C1053 642.837 1045.84 650 1037 650H340C331.163 650 324 642.837 324 634V139Z" fill="#D6DDE6" fill-opacity="0.2"/>
<path opacity="0.5" d="M109 329C109 324.582 112.582 321 117 321H249C253.418 321 257 324.582 257 329V355C257 359.418 253.418 363 249 363H117C112.582 363 109 359.418 109 355V329Z" fill="#D6DDE6" fill-opacity="0.2"/>
<path d="M111.562 93.5V70.652H116.728V75.944L116.14 75.062C116.56 73.41 117.4 72.178 118.66 71.366C119.92 70.554 121.404 70.148 123.112 70.148C124.988 70.148 126.64 70.638 128.068 71.618C129.496 72.598 130.42 73.886 130.84 75.482L129.286 75.608C129.986 73.788 131.036 72.43 132.436 71.534C133.836 70.61 135.446 70.148 137.266 70.148C138.89 70.148 140.332 70.512 141.592 71.24C142.88 71.968 143.888 72.99 144.616 74.306C145.344 75.594 145.708 77.092 145.708 78.8V93.5H140.206V80.102C140.206 79.094 140.024 78.226 139.66 77.498C139.296 76.77 138.792 76.21 138.148 75.818C137.504 75.398 136.72 75.188 135.796 75.188C134.928 75.188 134.158 75.398 133.486 75.818C132.814 76.21 132.296 76.77 131.932 77.498C131.568 78.226 131.386 79.094 131.386 80.102V93.5H125.884V80.102C125.884 79.094 125.702 78.226 125.338 77.498C124.974 76.77 124.456 76.21 123.784 75.818C123.14 75.398 122.37 75.188 121.474 75.188C120.606 75.188 119.836 75.398 119.164 75.818C118.492 76.21 117.974 76.77 117.61 77.498C117.246 78.226 117.064 79.094 117.064 80.102V93.5H111.562ZM159.855 94.004C157.615 94.004 155.571 93.486 153.723 92.45C151.903 91.414 150.447 90 149.355 88.208C148.291 86.416 147.759 84.372 147.759 82.076C147.759 79.78 148.291 77.736 149.355 75.944C150.447 74.152 151.903 72.738 153.723 71.702C155.543 70.666 157.587 70.148 159.855 70.148C162.095 70.148 164.125 70.666 165.945 71.702C167.765 72.738 169.207 74.152 170.271 75.944C171.363 77.708 171.909 79.752 171.909 82.076C171.909 84.372 171.363 86.416 170.271 88.208C169.179 90 167.723 91.414 165.903 92.45C164.083 93.486 162.067 94.004 159.855 94.004ZM159.855 88.964C161.087 88.964 162.165 88.67 163.089 88.082C164.041 87.494 164.783 86.682 165.315 85.646C165.875 84.582 166.155 83.392 166.155 82.076C166.155 80.732 165.875 79.556 165.315 78.548C164.783 77.512 164.041 76.7 163.089 76.112C162.165 75.496 161.087 75.188 159.855 75.188C158.595 75.188 157.489 75.496 156.537 76.112C155.585 76.7 154.829 77.512 154.269 78.548C153.737 79.556 153.471 80.732 153.471 82.076C153.471 83.392 153.737 84.582 154.269 85.646C154.829 86.682 155.585 87.494 156.537 88.082C157.489 88.67 158.595 88.964 159.855 88.964ZM180.879 93.5L171.891 70.652H177.897L184.407 88.628H182.181L188.733 70.652H194.739L185.751 93.5H180.879ZM206.526 94.004C204.174 94.004 202.116 93.472 200.352 92.408C198.588 91.344 197.216 89.902 196.236 88.082C195.256 86.262 194.766 84.246 194.766 82.034C194.766 79.738 195.256 77.708 196.236 75.944C197.244 74.152 198.602 72.738 200.31 71.702C202.046 70.666 203.978 70.148 206.106 70.148C207.898 70.148 209.466 70.442 210.81 71.03C212.182 71.618 213.344 72.43 214.296 73.466C215.248 74.502 215.976 75.692 216.48 77.036C216.984 78.352 217.236 79.78 217.236 81.32C217.236 81.712 217.208 82.118 217.152 82.538C217.124 82.958 217.054 83.322 216.942 83.63H199.302V79.43H213.834L211.23 81.404C211.482 80.116 211.412 78.968 211.02 77.96C210.656 76.952 210.04 76.154 209.172 75.566C208.332 74.978 207.31 74.684 206.106 74.684C204.958 74.684 203.936 74.978 203.04 75.566C202.144 76.126 201.458 76.966 200.982 78.086C200.534 79.178 200.366 80.508 200.478 82.076C200.366 83.476 200.548 84.722 201.024 85.814C201.528 86.878 202.256 87.704 203.208 88.292C204.188 88.88 205.308 89.174 206.568 89.174C207.828 89.174 208.892 88.908 209.76 88.376C210.656 87.844 211.356 87.13 211.86 86.234L216.312 88.418C215.864 89.51 215.164 90.476 214.212 91.316C213.26 92.156 212.126 92.814 210.81 93.29C209.522 93.766 208.094 94.004 206.526 94.004ZM222.373 93.5V75.566H218.341V70.652H222.373V69.896C222.373 68.16 222.723 66.69 223.423 65.486C224.151 64.254 225.159 63.316 226.447 62.672C227.735 62.028 229.261 61.706 231.025 61.706C231.361 61.706 231.725 61.734 232.117 61.79C232.537 61.818 232.887 61.86 233.167 61.916V66.662C232.887 66.606 232.621 66.578 232.369 66.578C232.145 66.55 231.935 66.536 231.739 66.536C230.507 66.536 229.555 66.816 228.883 67.376C228.211 67.908 227.875 68.748 227.875 69.896V70.652H237.871V75.566H227.875V93.5H222.373ZM235.813 93.5V70.652H241.357V93.5H235.813ZM254.672 93.752C252.096 93.752 250.094 93.052 248.666 91.652C247.266 90.224 246.566 88.222 246.566 85.646V75.566H242.618V70.652H243.038C244.158 70.652 245.026 70.358 245.642 69.77C246.258 69.182 246.566 68.328 246.566 67.208V65.444H252.068V70.652H257.318V75.566H252.068V85.352C252.068 86.108 252.194 86.752 252.446 87.284C252.726 87.816 253.146 88.222 253.706 88.502C254.294 88.782 255.036 88.922 255.932 88.922C256.128 88.922 256.352 88.908 256.604 88.88C256.884 88.852 257.15 88.824 257.402 88.796V93.5C257.01 93.556 256.562 93.612 256.058 93.668C255.554 93.724 255.092 93.752 254.672 93.752Z" fill="#C1F17E"/>
<path d="M957 65C957 60.5817 960.582 57 965 57H1045C1049.42 57 1053 60.5817 1053 65V91C1053 95.4183 1049.42 99 1045 99H965C960.582 99 957 95.4183 957 91V65Z" fill="#A7EE43"/>
<g clip-path="url(#clip0_3_3265)">
<g clip-path="url(#clip1_3_3265)">
<rect width="665.014" height="288.9" transform="translate(356 342)" fill="#29292A"/>
<mask id="path-10-inside-2_3_3265" fill="white">
<path d="M356 363.804C356 356.278 362.101 350.177 369.627 350.177H666.703C674.229 350.177 680.331 356.278 680.331 363.804V609.096C680.331 616.622 674.229 622.723 666.703 622.723H369.627C362.101 622.723 356 616.622 356 609.096V363.804Z"/>
</mask>
<path d="M356 363.804C356 356.278 362.101 350.177 369.627 350.177H666.703C674.229 350.177 680.331 356.278 680.331 363.804V609.096C680.331 616.622 674.229 622.723 666.703 622.723H369.627C362.101 622.723 356 616.622 356 609.096V363.804Z" fill="black" fill-opacity="0.17"/>
<path d="M369.627 351.199H666.703V349.154H369.627V351.199ZM679.309 363.804V609.096H681.353V363.804H679.309ZM666.703 621.701H369.627V623.745H666.703V621.701ZM357.022 609.096V363.804H354.978V609.096H357.022ZM369.627 621.701C362.666 621.701 357.022 616.058 357.022 609.096H354.978C354.978 617.186 361.537 623.745 369.627 623.745V621.701ZM679.309 609.096C679.309 616.058 673.665 621.701 666.703 621.701V623.745C674.794 623.745 681.353 617.187 681.353 609.096H679.309ZM666.703 351.199C673.665 351.199 679.309 356.842 679.309 363.804H681.353C681.353 355.713 674.794 349.154 666.703 349.154V351.199ZM369.627 349.154C361.537 349.154 354.978 355.713 354.978 363.804H357.022C357.022 356.842 362.666 351.199 369.627 351.199V349.154Z" fill="white" fill-opacity="0.2" mask="url(#path-10-inside-2_3_3265)"/>
<path d="M373.187 379.529V370.9H376.395C376.982 370.9 377.499 371.008 377.947 371.224C378.403 371.433 378.758 371.742 379.013 372.151C379.268 372.552 379.395 373.043 379.395 373.622C379.395 374.216 379.252 374.722 378.967 375.139C378.689 375.556 378.31 375.865 377.831 376.066L379.812 379.529H378.028L375.909 375.742L376.928 376.344H374.762V379.529H373.187ZM374.762 374.954H376.418C376.704 374.954 376.951 374.9 377.16 374.792C377.368 374.676 377.53 374.518 377.646 374.317C377.762 374.116 377.82 373.884 377.82 373.622C377.82 373.352 377.762 373.12 377.646 372.927C377.53 372.726 377.368 372.572 377.16 372.464C376.951 372.348 376.704 372.29 376.418 372.29H374.762V374.954ZM383.355 379.668C382.706 379.668 382.139 379.522 381.652 379.228C381.166 378.935 380.787 378.537 380.517 378.035C380.247 377.533 380.112 376.977 380.112 376.367C380.112 375.734 380.247 375.174 380.517 374.688C380.795 374.193 381.17 373.803 381.641 373.518C382.119 373.232 382.652 373.089 383.239 373.089C383.733 373.089 384.166 373.17 384.536 373.332C384.915 373.494 385.235 373.718 385.498 374.004C385.76 374.29 385.961 374.618 386.1 374.989C386.239 375.352 386.309 375.745 386.309 376.17C386.309 376.278 386.301 376.39 386.286 376.506C386.278 376.622 386.259 376.722 386.228 376.807H381.363V375.649H385.37L384.652 376.193C384.722 375.838 384.702 375.521 384.594 375.244C384.494 374.966 384.324 374.745 384.085 374.583C383.853 374.421 383.571 374.34 383.239 374.34C382.923 374.34 382.641 374.421 382.394 374.583C382.146 374.738 381.957 374.969 381.826 375.278C381.702 375.579 381.656 375.946 381.687 376.379C381.656 376.765 381.706 377.108 381.838 377.41C381.977 377.703 382.177 377.931 382.44 378.093C382.71 378.255 383.019 378.336 383.367 378.336C383.714 378.336 384.008 378.263 384.247 378.116C384.494 377.969 384.687 377.773 384.826 377.525L386.054 378.128C385.93 378.429 385.737 378.695 385.475 378.927C385.212 379.159 384.899 379.34 384.536 379.471C384.181 379.603 383.787 379.668 383.355 379.668ZM389.246 379.529L386.767 373.228H388.423L390.219 378.186H389.605L391.412 373.228H393.068L390.589 379.529H389.246ZM396.782 379.668C396.133 379.668 395.566 379.522 395.079 379.228C394.593 378.935 394.214 378.537 393.944 378.035C393.674 377.533 393.539 376.977 393.539 376.367C393.539 375.734 393.674 375.174 393.944 374.688C394.222 374.193 394.597 373.803 395.068 373.518C395.546 373.232 396.079 373.089 396.666 373.089C397.16 373.089 397.593 373.17 397.964 373.332C398.342 373.494 398.662 373.718 398.925 374.004C399.187 374.29 399.388 374.618 399.527 374.989C399.666 375.352 399.736 375.745 399.736 376.17C399.736 376.278 399.728 376.39 399.713 376.506C399.705 376.622 399.686 376.722 399.655 376.807H394.79V375.649H398.798L398.079 376.193C398.149 375.838 398.13 375.521 398.021 375.244C397.921 374.966 397.751 374.745 397.512 374.583C397.28 374.421 396.998 374.34 396.666 374.34C396.35 374.34 396.068 374.421 395.821 374.583C395.574 374.738 395.384 374.969 395.253 375.278C395.129 375.579 395.083 375.946 395.114 376.379C395.083 376.765 395.133 377.108 395.265 377.41C395.404 377.703 395.604 377.931 395.867 378.093C396.137 378.255 396.446 378.336 396.794 378.336C397.141 378.336 397.435 378.263 397.674 378.116C397.921 377.969 398.114 377.773 398.253 377.525L399.481 378.128C399.357 378.429 399.164 378.695 398.902 378.927C398.639 379.159 398.326 379.34 397.964 379.471C397.608 379.603 397.214 379.668 396.782 379.668ZM400.886 379.529V373.228H402.311V374.467L402.195 374.247C402.342 373.869 402.581 373.583 402.913 373.39C403.253 373.189 403.647 373.089 404.095 373.089C404.558 373.089 404.967 373.189 405.322 373.39C405.685 373.591 405.967 373.873 406.168 374.236C406.369 374.591 406.469 375.004 406.469 375.475V379.529H404.952V375.834C404.952 375.556 404.898 375.317 404.79 375.116C404.681 374.915 404.531 374.761 404.338 374.653C404.152 374.537 403.932 374.479 403.678 374.479C403.43 374.479 403.21 374.537 403.017 374.653C402.824 374.761 402.674 374.915 402.566 375.116C402.457 375.317 402.403 375.556 402.403 375.834V379.529H400.886ZM409.999 379.668C409.513 379.668 409.088 379.56 408.725 379.344C408.37 379.128 408.096 378.827 407.903 378.44C407.718 378.054 407.625 377.603 407.625 377.085V373.228H409.142V376.958C409.142 377.22 409.192 377.452 409.293 377.653C409.401 377.846 409.552 378 409.745 378.116C409.945 378.224 410.169 378.278 410.416 378.278C410.664 378.278 410.884 378.224 411.077 378.116C411.27 378 411.42 377.842 411.528 377.641C411.637 377.44 411.691 377.201 411.691 376.923V373.228H413.208V379.529H411.772V378.29L411.899 378.51C411.752 378.896 411.509 379.186 411.169 379.379C410.837 379.572 410.447 379.668 409.999 379.668ZM417.607 379.668C416.958 379.668 416.391 379.522 415.904 379.228C415.418 378.935 415.039 378.537 414.769 378.035C414.499 377.533 414.364 376.977 414.364 376.367C414.364 375.734 414.499 375.174 414.769 374.688C415.047 374.193 415.422 373.803 415.893 373.518C416.371 373.232 416.904 373.089 417.491 373.089C417.985 373.089 418.418 373.17 418.788 373.332C419.167 373.494 419.487 373.718 419.75 374.004C420.012 374.29 420.213 374.618 420.352 374.989C420.491 375.352 420.561 375.745 420.561 376.17C420.561 376.278 420.553 376.39 420.538 376.506C420.53 376.622 420.51 376.722 420.48 376.807H415.615V375.649H419.622L418.904 376.193C418.974 375.838 418.954 375.521 418.846 375.244C418.746 374.966 418.576 374.745 418.337 374.583C418.105 374.421 417.823 374.34 417.491 374.34C417.175 374.34 416.893 374.421 416.646 374.583C416.398 374.738 416.209 374.969 416.078 375.278C415.954 375.579 415.908 375.946 415.939 376.379C415.908 376.765 415.958 377.108 416.09 377.41C416.229 377.703 416.429 377.931 416.692 378.093C416.962 378.255 417.271 378.336 417.619 378.336C417.966 378.336 418.259 378.263 418.499 378.116C418.746 377.969 418.939 377.773 419.078 377.525L420.306 378.128C420.182 378.429 419.989 378.695 419.727 378.927C419.464 379.159 419.151 379.34 418.788 379.471C418.433 379.603 418.039 379.668 417.607 379.668Z" fill="#D6DDE6"/>
<path fill-rule="evenodd" clip-rule="evenodd" d="M651.032 373.666C650.279 373.666 649.669 374.276 649.669 375.029C649.669 375.782 650.279 376.392 651.032 376.392C651.784 376.392 652.394 375.782 652.394 375.029C652.394 374.276 651.784 373.666 651.032 373.666ZM654.439 375.029C654.439 374.276 655.049 373.666 655.801 373.666C656.554 373.666 657.164 374.276 657.164 375.029C657.164 375.782 656.554 376.392 655.801 376.392C655.049 376.392 654.439 375.782 654.439 375.029ZM659.208 375.029C659.208 374.276 659.818 373.666 660.571 373.666C661.323 373.666 661.934 374.276 661.934 375.029C661.934 375.782 661.323 376.392 660.571 376.392C659.818 376.392 659.208 375.782 659.208 375.029Z" fill="#D6DDE6"/>
<path d="M381.11 417.431V413.632H373.187V410.991L380.925 400.172H384.214V410.991H386.739V413.632H384.214V417.431H381.11ZM375.504 412.126L374.948 410.991H381.11V402.651L381.921 402.906L375.504 412.126ZM394.16 417.709C393.248 417.709 392.376 417.539 391.542 417.199C390.723 416.86 390.013 416.381 389.41 415.763C388.824 415.13 388.422 414.381 388.206 413.516L390.939 412.543C391.202 413.331 391.627 413.918 392.214 414.304C392.8 414.674 393.449 414.86 394.16 414.86C394.746 414.86 395.264 414.736 395.712 414.489C396.175 414.226 396.53 413.871 396.777 413.423C397.024 412.96 397.148 412.427 397.148 411.825C397.148 411.223 397.017 410.697 396.754 410.25C396.507 409.802 396.16 409.454 395.712 409.207C395.264 408.945 394.746 408.813 394.16 408.813C393.557 408.813 393.009 408.945 392.515 409.207C392.036 409.47 391.688 409.848 391.472 410.342L388.901 409.763L390.268 400.172H399.673V402.836H391.519L392.7 401.469L391.727 408.697L390.824 407.956C391.256 407.323 391.781 406.86 392.399 406.566C393.032 406.273 393.797 406.126 394.692 406.126C395.835 406.126 396.824 406.373 397.658 406.867C398.507 407.361 399.164 408.033 399.627 408.883C400.09 409.732 400.322 410.713 400.322 411.825C400.322 412.937 400.052 413.941 399.511 414.837C398.97 415.732 398.237 416.435 397.31 416.945C396.384 417.454 395.333 417.709 394.16 417.709ZM403.686 421.045V419.539C404.196 419.416 404.605 419.176 404.914 418.821C405.239 418.481 405.439 418.018 405.517 417.431H404.15V414.188H407.208V416.18C407.208 417.539 406.907 418.628 406.304 419.447C405.717 420.265 404.845 420.798 403.686 421.045ZM417.55 417.709C416.175 417.709 414.971 417.338 413.936 416.597C412.901 415.856 412.09 414.813 411.503 413.47C410.932 412.126 410.646 410.566 410.646 408.79C410.646 406.999 410.932 405.439 411.503 404.11C412.075 402.782 412.878 401.747 413.913 401.006C414.947 400.265 416.152 399.894 417.527 399.894C418.932 399.894 420.144 400.265 421.164 401.006C422.198 401.747 423.009 402.79 423.596 404.134C424.183 405.462 424.476 407.014 424.476 408.79C424.476 410.566 424.183 412.126 423.596 413.47C423.025 414.798 422.222 415.84 421.187 416.597C420.152 417.338 418.94 417.709 417.55 417.709ZM417.573 414.837C418.361 414.837 419.032 414.597 419.588 414.118C420.144 413.624 420.569 412.929 420.863 412.033C421.171 411.122 421.326 410.041 421.326 408.79C421.326 407.539 421.171 406.466 420.863 405.57C420.569 404.659 420.137 403.964 419.565 403.485C419.009 403.006 418.33 402.767 417.527 402.767C416.754 402.767 416.09 403.006 415.534 403.485C414.978 403.964 414.546 404.659 414.237 405.57C413.943 406.466 413.797 407.539 413.797 408.79C413.797 410.026 413.943 411.099 414.237 412.01C414.546 412.906 414.978 413.601 415.534 414.095C416.106 414.589 416.785 414.837 417.573 414.837ZM433.72 417.709C432.346 417.709 431.141 417.338 430.106 416.597C429.071 415.856 428.261 414.813 427.674 413.47C427.102 412.126 426.816 410.566 426.816 408.79C426.816 406.999 427.102 405.439 427.674 404.11C428.245 402.782 429.048 401.747 430.083 401.006C431.118 400.265 432.322 399.894 433.697 399.894C435.102 399.894 436.315 400.265 437.334 401.006C438.369 401.747 439.18 402.79 439.767 404.134C440.353 405.462 440.647 407.014 440.647 408.79C440.647 410.566 440.353 412.126 439.767 413.47C439.195 414.798 438.392 415.84 437.357 416.597C436.322 417.338 435.11 417.709 433.72 417.709ZM433.743 414.837C434.531 414.837 435.203 414.597 435.759 414.118C436.315 413.624 436.739 412.929 437.033 412.033C437.342 411.122 437.496 410.041 437.496 408.79C437.496 407.539 437.342 406.466 437.033 405.57C436.739 404.659 436.307 403.964 435.736 403.485C435.18 403.006 434.5 402.767 433.697 402.767C432.925 402.767 432.261 403.006 431.705 403.485C431.149 403.964 430.716 404.659 430.407 405.57C430.114 406.466 429.967 407.539 429.967 408.79C429.967 410.026 430.114 411.099 430.407 412.01C430.716 412.906 431.149 413.601 431.705 414.095C432.276 414.589 432.956 414.837 433.743 414.837ZM449.89 417.709C448.516 417.709 447.311 417.338 446.277 416.597C445.242 415.856 444.431 414.813 443.844 413.47C443.273 412.126 442.987 410.566 442.987 408.79C442.987 406.999 443.273 405.439 443.844 404.11C444.415 402.782 445.219 401.747 446.253 401.006C447.288 400.265 448.493 399.894 449.867 399.894C451.273 399.894 452.485 400.265 453.504 401.006C454.539 401.747 455.35 402.79 455.937 404.134C456.524 405.462 456.817 407.014 456.817 408.79C456.817 410.566 456.524 412.126 455.937 413.47C455.365 414.798 454.562 415.84 453.528 416.597C452.493 417.338 451.28 417.709 449.89 417.709ZM449.914 414.837C450.701 414.837 451.373 414.597 451.929 414.118C452.485 413.624 452.91 412.929 453.203 412.033C453.512 411.122 453.667 410.041 453.667 408.79C453.667 407.539 453.512 406.466 453.203 405.57C452.91 404.659 452.477 403.964 451.906 403.485C451.35 403.006 450.67 402.767 449.867 402.767C449.095 402.767 448.431 403.006 447.875 403.485C447.319 403.964 446.887 404.659 446.578 405.57C446.284 406.466 446.138 407.539 446.138 408.79C446.138 410.026 446.284 411.099 446.578 412.01C446.887 412.906 447.319 413.601 447.875 414.095C448.446 414.589 449.126 414.837 449.914 414.837Z" fill="#D6DDE6"/>
<path d="M466.214 417.431V415.651H464.433V414.765H466.214V413.002H467.099V414.765H468.862V415.651H467.099V417.431H466.214ZM472.136 417.537C471.787 417.537 471.46 417.475 471.153 417.351C470.846 417.222 470.58 417.041 470.355 416.811C470.131 416.581 469.972 416.303 469.877 415.978L470.754 415.642C470.866 415.955 471.049 416.194 471.303 416.359C471.557 416.525 471.835 416.607 472.136 416.607C472.384 416.607 472.602 416.551 472.791 416.439C472.98 416.327 473.128 416.173 473.234 415.978C473.346 415.784 473.402 415.562 473.402 415.314C473.402 415.06 473.346 414.839 473.234 414.65C473.128 414.455 472.98 414.304 472.791 414.198C472.602 414.086 472.384 414.03 472.136 414.03C471.888 414.03 471.66 414.086 471.454 414.198C471.247 414.31 471.097 414.461 471.002 414.65L470.161 414.464L470.674 410.832H474.191V411.718H471.082L471.48 411.284L471.099 414.065L470.772 413.844C470.949 413.596 471.164 413.416 471.418 413.303C471.672 413.191 471.962 413.135 472.286 413.135C472.717 413.135 473.092 413.233 473.411 413.427C473.736 413.616 473.987 413.876 474.164 414.207C474.347 414.532 474.439 414.901 474.439 415.314C474.439 415.733 474.338 416.111 474.138 416.448C473.937 416.785 473.662 417.05 473.314 417.245C472.971 417.44 472.579 417.537 472.136 417.537ZM476.248 417.431L481.616 410.832H482.732L477.364 417.431H476.248ZM477.258 414.18C476.933 414.18 476.641 414.104 476.381 413.95C476.121 413.791 475.911 413.581 475.752 413.321C475.598 413.061 475.522 412.772 475.522 412.453C475.522 412.134 475.598 411.845 475.752 411.585C475.911 411.319 476.121 411.11 476.381 410.956C476.641 410.803 476.933 410.726 477.258 410.726C477.582 410.726 477.875 410.803 478.135 410.956C478.394 411.11 478.601 411.319 478.755 411.585C478.908 411.845 478.985 412.134 478.985 412.453C478.985 412.772 478.908 413.061 478.755 413.321C478.601 413.581 478.394 413.791 478.135 413.95C477.875 414.104 477.582 414.18 477.258 414.18ZM477.258 413.374C477.441 413.374 477.597 413.33 477.727 413.241C477.863 413.153 477.966 413.038 478.037 412.896C478.108 412.754 478.143 412.607 478.143 412.453C478.143 412.294 478.108 412.146 478.037 412.01C477.966 411.868 477.863 411.753 477.727 411.665C477.597 411.576 477.441 411.532 477.258 411.532C477.081 411.532 476.924 411.576 476.788 411.665C476.652 411.753 476.546 411.868 476.469 412.01C476.398 412.146 476.363 412.294 476.363 412.453C476.363 412.607 476.398 412.754 476.469 412.896C476.546 413.038 476.652 413.153 476.788 413.241C476.924 413.33 477.081 413.374 477.258 413.374ZM481.678 417.537C481.353 417.537 481.058 417.461 480.792 417.307C480.532 417.148 480.325 416.938 480.172 416.678C480.018 416.418 479.942 416.129 479.942 415.81C479.942 415.491 480.018 415.202 480.172 414.942C480.325 414.676 480.532 414.467 480.792 414.313C481.058 414.16 481.353 414.083 481.678 414.083C482.003 414.083 482.295 414.16 482.555 414.313C482.814 414.467 483.021 414.676 483.175 414.942C483.328 415.202 483.405 415.491 483.405 415.81C483.405 416.129 483.328 416.418 483.175 416.678C483.021 416.938 482.814 417.148 482.555 417.307C482.295 417.461 482.003 417.537 481.678 417.537ZM481.678 416.731C481.861 416.731 482.017 416.687 482.147 416.599C482.277 416.51 482.377 416.395 482.448 416.253C482.525 416.111 482.563 415.964 482.563 415.81C482.563 415.651 482.525 415.503 482.448 415.367C482.377 415.226 482.277 415.11 482.147 415.022C482.017 414.933 481.861 414.889 481.678 414.889C481.501 414.889 481.344 414.933 481.208 415.022C481.072 415.11 480.966 415.226 480.889 415.367C480.819 415.503 480.783 415.651 480.783 415.81C480.783 415.964 480.819 416.111 480.889 416.253C480.966 416.395 481.072 416.51 481.208 416.599C481.344 416.687 481.501 416.731 481.678 416.731Z" fill="#C1F17E"/>
<path d="M377.024 453.235V452.633L378.849 450.657C379.209 450.273 379.496 449.957 379.708 449.709C379.927 449.461 380.086 449.24 380.186 449.045C380.287 448.85 380.337 448.644 380.337 448.425C380.337 448.065 380.231 447.787 380.018 447.592C379.806 447.398 379.525 447.3 379.177 447.3C378.822 447.3 378.521 447.403 378.273 447.61C378.025 447.811 377.854 448.097 377.759 448.469L376.971 448.266C377.048 447.911 377.19 447.604 377.396 447.344C377.603 447.085 377.86 446.884 378.167 446.742C378.474 446.6 378.811 446.53 379.177 446.53C379.578 446.53 379.93 446.609 380.231 446.769C380.538 446.922 380.777 447.138 380.948 447.415C381.125 447.693 381.214 448.015 381.214 448.381C381.214 448.623 381.164 448.859 381.063 449.089C380.963 449.32 380.815 449.565 380.62 449.825C380.426 450.079 380.172 450.374 379.859 450.71L378.229 452.482H381.356V453.235H377.024ZM385.064 453.341C384.538 453.341 384.078 453.199 383.682 452.916C383.292 452.627 382.988 452.228 382.77 451.72C382.551 451.206 382.442 450.61 382.442 449.931C382.442 449.252 382.551 448.658 382.77 448.151C382.988 447.637 383.292 447.238 383.682 446.955C384.072 446.671 384.529 446.53 385.055 446.53C385.58 446.53 386.038 446.671 386.428 446.955C386.818 447.238 387.122 447.637 387.34 448.151C387.565 448.658 387.677 449.252 387.677 449.931C387.677 450.61 387.568 451.206 387.349 451.72C387.131 452.234 386.824 452.633 386.428 452.916C386.038 453.199 385.583 453.341 385.064 453.341ZM385.064 452.535C385.418 452.535 385.725 452.429 385.985 452.216C386.245 451.998 386.446 451.694 386.587 451.304C386.735 450.914 386.809 450.456 386.809 449.931C386.809 449.405 386.735 448.948 386.587 448.558C386.446 448.168 386.242 447.867 385.976 447.654C385.716 447.442 385.409 447.336 385.055 447.336C384.701 447.336 384.394 447.442 384.134 447.654C383.874 447.867 383.67 448.168 383.523 448.558C383.381 448.948 383.31 449.405 383.31 449.931C383.31 450.451 383.381 450.905 383.523 451.295C383.67 451.685 383.874 451.989 384.134 452.207C384.399 452.426 384.709 452.535 385.064 452.535ZM391.474 453.341C390.948 453.341 390.487 453.199 390.092 452.916C389.702 452.627 389.398 452.228 389.179 451.72C388.961 451.206 388.852 450.61 388.852 449.931C388.852 449.252 388.961 448.658 389.179 448.151C389.398 447.637 389.702 447.238 390.092 446.955C390.481 446.671 390.939 446.53 391.465 446.53C391.99 446.53 392.448 446.671 392.838 446.955C393.227 447.238 393.532 447.637 393.75 448.151C393.974 448.658 394.087 449.252 394.087 449.931C394.087 450.61 393.977 451.206 393.759 451.72C393.54 452.234 393.233 452.633 392.838 452.916C392.448 453.199 391.993 453.341 391.474 453.341ZM391.474 452.535C391.828 452.535 392.135 452.429 392.395 452.216C392.655 451.998 392.855 451.694 392.997 451.304C393.145 450.914 393.219 450.456 393.219 449.931C393.219 449.405 393.145 448.948 392.997 448.558C392.855 448.168 392.652 447.867 392.386 447.654C392.126 447.442 391.819 447.336 391.465 447.336C391.11 447.336 390.803 447.442 390.543 447.654C390.284 447.867 390.08 448.168 389.932 448.558C389.791 448.948 389.72 449.405 389.72 449.931C389.72 450.451 389.791 450.905 389.932 451.295C390.08 451.685 390.284 451.989 390.543 452.207C390.809 452.426 391.119 452.535 391.474 452.535ZM395.306 453.235V446.53H396.129V451.127L395.793 451.047L398.326 448.461H399.38L397.547 450.383L399.504 453.235H398.53L396.741 450.648L397.254 450.622L395.864 452.074L396.129 451.472V453.235H395.306Z" fill="#D6DDE6" fill-opacity="0.62"/>
<path d="M405.058 449.735H663.637" stroke="#D6DDE6" stroke-opacity="0.2" stroke-width="1.02205"/>
<path d="M380.994 487.04V481.194H379.745V480.441H381.871V487.04H380.994ZM385.457 487.146C385.115 487.146 384.793 487.087 384.492 486.969C384.191 486.845 383.928 486.671 383.703 486.446C383.485 486.216 383.325 485.947 383.225 485.64L383.934 485.339C384.058 485.664 384.259 485.918 384.536 486.101C384.82 486.278 385.127 486.367 385.457 486.367C385.729 486.367 385.968 486.308 386.175 486.189C386.387 486.065 386.553 485.897 386.671 485.685C386.789 485.466 386.848 485.224 386.848 484.958C386.848 484.681 386.786 484.436 386.662 484.223C386.544 484.01 386.381 483.845 386.175 483.727C385.968 483.603 385.732 483.541 385.466 483.541C385.194 483.541 384.946 483.603 384.722 483.727C384.498 483.851 384.335 484.007 384.235 484.196L383.535 484.046L384.04 480.441H387.459V481.194H384.368L384.704 480.857L384.315 483.656L384.013 483.479C384.208 483.231 384.436 483.054 384.696 482.948C384.961 482.835 385.248 482.779 385.555 482.779C385.986 482.779 386.364 482.877 386.688 483.072C387.013 483.266 387.267 483.526 387.45 483.851C387.633 484.176 387.725 484.545 387.725 484.958C387.725 485.372 387.624 485.744 387.424 486.074C387.229 486.405 386.96 486.668 386.618 486.863C386.281 487.052 385.894 487.146 385.457 487.146ZM391.474 487.146C390.948 487.146 390.487 487.004 390.092 486.721C389.702 486.432 389.398 486.033 389.179 485.525C388.961 485.011 388.852 484.415 388.852 483.736C388.852 483.057 388.961 482.463 389.179 481.955C389.398 481.442 389.702 481.043 390.092 480.76C390.481 480.476 390.939 480.334 391.465 480.334C391.99 480.334 392.448 480.476 392.838 480.76C393.227 481.043 393.532 481.442 393.75 481.955C393.974 482.463 394.087 483.057 394.087 483.736C394.087 484.415 393.977 485.011 393.759 485.525C393.54 486.039 393.233 486.437 392.838 486.721C392.448 487.004 391.993 487.146 391.474 487.146ZM391.474 486.34C391.828 486.34 392.135 486.234 392.395 486.021C392.655 485.803 392.855 485.499 392.997 485.109C393.145 484.719 393.219 484.261 393.219 483.736C393.219 483.21 393.145 482.753 392.997 482.363C392.855 481.973 392.652 481.672 392.386 481.459C392.126 481.247 391.819 481.141 391.465 481.141C391.11 481.141 390.803 481.247 390.543 481.459C390.284 481.672 390.08 481.973 389.932 482.363C389.791 482.753 389.72 483.21 389.72 483.736C389.72 484.256 389.791 484.71 389.932 485.1C390.08 485.49 390.284 485.794 390.543 486.012C390.809 486.231 391.119 486.34 391.474 486.34ZM395.306 487.04V480.334H396.129V484.932L395.793 484.852L398.326 482.265H399.38L397.547 484.188L399.504 487.04H398.53L396.741 484.453L397.254 484.427L395.864 485.879L396.129 485.277V487.04H395.306Z" fill="#D6DDE6" fill-opacity="0.62"/>
<path d="M405.058 483.54H663.637" stroke="#D6DDE6" stroke-opacity="0.2" stroke-width="1.02205"/>
<path d="M380.043 520.845V514.999H378.794V514.246H380.92V520.845H380.043ZM385.064 520.951C384.538 520.951 384.078 520.809 383.682 520.526C383.292 520.236 382.988 519.838 382.77 519.33C382.551 518.816 382.442 518.22 382.442 517.541C382.442 516.862 382.551 516.268 382.77 515.76C382.988 515.247 383.292 514.848 383.682 514.565C384.072 514.281 384.529 514.139 385.055 514.139C385.58 514.139 386.038 514.281 386.428 514.565C386.818 514.848 387.122 515.247 387.34 515.76C387.565 516.268 387.677 516.862 387.677 517.541C387.677 518.22 387.568 518.816 387.349 519.33C387.131 519.844 386.824 520.242 386.428 520.526C386.038 520.809 385.583 520.951 385.064 520.951ZM385.064 520.145C385.418 520.145 385.725 520.039 385.985 519.826C386.245 519.608 386.446 519.303 386.587 518.914C386.735 518.524 386.809 518.066 386.809 517.541C386.809 517.015 386.735 516.558 386.587 516.168C386.446 515.778 386.242 515.477 385.976 515.264C385.716 515.052 385.409 514.945 385.055 514.945C384.701 514.945 384.394 515.052 384.134 515.264C383.874 515.477 383.67 515.778 383.523 516.168C383.381 516.558 383.31 517.015 383.31 517.541C383.31 518.06 383.381 518.515 383.523 518.905C383.67 519.295 383.874 519.599 384.134 519.817C384.399 520.036 384.709 520.145 385.064 520.145ZM391.474 520.951C390.948 520.951 390.487 520.809 390.092 520.526C389.702 520.236 389.398 519.838 389.179 519.33C388.961 518.816 388.852 518.22 388.852 517.541C388.852 516.862 388.961 516.268 389.179 515.76C389.398 515.247 389.702 514.848 390.092 514.565C390.481 514.281 390.939 514.139 391.465 514.139C391.99 514.139 392.448 514.281 392.838 514.565C393.227 514.848 393.532 515.247 393.75 515.76C393.974 516.268 394.087 516.862 394.087 517.541C394.087 518.22 393.977 518.816 393.759 519.33C393.54 519.844 393.233 520.242 392.838 520.526C392.448 520.809 391.993 520.951 391.474 520.951ZM391.474 520.145C391.828 520.145 392.135 520.039 392.395 519.826C392.655 519.608 392.855 519.303 392.997 518.914C393.145 518.524 393.219 518.066 393.219 517.541C393.219 517.015 393.145 516.558 392.997 516.168C392.855 515.778 392.652 515.477 392.386 515.264C392.126 515.052 391.819 514.945 391.465 514.945C391.11 514.945 390.803 515.052 390.543 515.264C390.284 515.477 390.08 515.778 389.932 516.168C389.791 516.558 389.72 517.015 389.72 517.541C389.72 518.06 389.791 518.515 389.932 518.905C390.08 519.295 390.284 519.599 390.543 519.817C390.809 520.036 391.119 520.145 391.474 520.145ZM395.306 520.845V514.139H396.129V518.737L395.793 518.657L398.326 516.07H399.38L397.547 517.993L399.504 520.845H398.53L396.741 518.258L397.254 518.232L395.864 519.684L396.129 519.082V520.845H395.306Z" fill="#D6DDE6" fill-opacity="0.62"/>
<path d="M405.058 517.345H663.637" stroke="#D6DDE6" stroke-opacity="0.2" stroke-width="1.02205"/>
<path d="M385.457 554.756C385.115 554.756 384.793 554.697 384.492 554.579C384.191 554.455 383.928 554.281 383.703 554.056C383.485 553.826 383.326 553.557 383.225 553.25L383.934 552.949C384.058 553.274 384.259 553.528 384.536 553.711C384.82 553.888 385.127 553.976 385.457 553.976C385.729 553.976 385.968 553.917 386.175 553.799C386.387 553.675 386.553 553.507 386.671 553.294C386.789 553.076 386.848 552.834 386.848 552.568C386.848 552.291 386.786 552.045 386.662 551.833C386.544 551.62 386.381 551.455 386.175 551.337C385.968 551.213 385.732 551.151 385.466 551.151C385.194 551.151 384.946 551.213 384.722 551.337C384.498 551.461 384.335 551.617 384.235 551.806L383.535 551.656L384.04 548.051H387.459V548.804H384.368L384.704 548.467L384.315 551.266L384.013 551.089C384.208 550.841 384.436 550.664 384.696 550.557C384.961 550.445 385.248 550.389 385.555 550.389C385.986 550.389 386.364 550.487 386.688 550.681C387.013 550.876 387.267 551.136 387.45 551.461C387.633 551.786 387.725 552.155 387.725 552.568C387.725 552.981 387.624 553.353 387.424 553.684C387.229 554.015 386.96 554.278 386.618 554.473C386.281 554.661 385.894 554.756 385.457 554.756ZM391.474 554.756C390.948 554.756 390.487 554.614 390.092 554.331C389.702 554.041 389.398 553.643 389.179 553.135C388.961 552.621 388.852 552.025 388.852 551.346C388.852 550.667 388.961 550.073 389.179 549.565C389.398 549.052 389.702 548.653 390.092 548.37C390.481 548.086 390.939 547.944 391.465 547.944C391.99 547.944 392.448 548.086 392.838 548.37C393.227 548.653 393.532 549.052 393.75 549.565C393.974 550.073 394.087 550.667 394.087 551.346C394.087 552.025 393.977 552.621 393.759 553.135C393.54 553.649 393.233 554.047 392.838 554.331C392.448 554.614 391.993 554.756 391.474 554.756ZM391.474 553.95C391.828 553.95 392.135 553.844 392.395 553.631C392.655 553.413 392.855 553.108 392.997 552.719C393.145 552.329 393.219 551.871 393.219 551.346C393.219 550.82 393.145 550.362 392.997 549.973C392.855 549.583 392.652 549.282 392.386 549.069C392.126 548.857 391.819 548.75 391.465 548.75C391.11 548.75 390.803 548.857 390.543 549.069C390.284 549.282 390.08 549.583 389.932 549.973C389.791 550.362 389.72 550.82 389.72 551.346C389.72 551.865 389.791 552.32 389.932 552.71C390.08 553.1 390.284 553.404 390.543 553.622C390.809 553.841 391.119 553.95 391.474 553.95ZM395.306 554.65V547.944H396.129V552.542L395.793 552.462L398.326 549.875H399.38L397.547 551.797L399.504 554.65H398.53L396.741 552.063L397.254 552.037L395.864 553.489L396.129 552.887V554.65H395.306Z" fill="#D6DDE6" fill-opacity="0.62"/>
<path d="M405.058 551.15H663.637" stroke="#D6DDE6" stroke-opacity="0.2" stroke-width="1.02205"/>
<path d="M396.413 588.561C395.887 588.561 395.427 588.419 395.031 588.136C394.641 587.846 394.337 587.448 394.119 586.94C393.9 586.426 393.791 585.83 393.791 585.151C393.791 584.472 393.9 583.878 394.119 583.37C394.337 582.856 394.641 582.458 395.031 582.174C395.421 581.891 395.878 581.749 396.404 581.749C396.93 581.749 397.387 581.891 397.777 582.174C398.167 582.458 398.471 582.856 398.689 583.37C398.914 583.878 399.026 584.472 399.026 585.151C399.026 585.83 398.917 586.426 398.698 586.94C398.48 587.454 398.173 587.852 397.777 588.136C397.387 588.419 396.932 588.561 396.413 588.561ZM396.413 587.755C396.767 587.755 397.074 587.649 397.334 587.436C397.594 587.217 397.795 586.913 397.936 586.524C398.084 586.134 398.158 585.676 398.158 585.151C398.158 584.625 398.084 584.167 397.936 583.778C397.795 583.388 397.591 583.087 397.325 582.874C397.065 582.662 396.758 582.555 396.404 582.555C396.05 582.555 395.743 582.662 395.483 582.874C395.223 583.087 395.019 583.388 394.872 583.778C394.73 584.167 394.659 584.625 394.659 585.151C394.659 585.67 394.73 586.125 394.872 586.515C395.019 586.904 395.223 587.209 395.483 587.427C395.748 587.646 396.058 587.755 396.413 587.755Z" fill="#D6DDE6" fill-opacity="0.62"/>
<path d="M405.058 584.955H663.637" stroke="#D6DDE6" stroke-opacity="0.2" stroke-width="1.02205"/>
<path opacity="0.6" d="M405.059 546.275L423.505 541.053L441.95 546.275L469.619 496.665L492.676 488.832L520.344 522.776H534.178L538.789 509.72L561.846 512.331L571.069 507.109L580.292 511.026L586.479 501.887L598.738 513.637L612.572 507.109L621.795 518.859L635.629 512.331L663.297 518.859V590.454H405.059V546.275Z" fill="url(#paint0_linear_3_3265)"/>
<path d="M405.059 546.066L423.505 540.844L441.95 546.066L469.619 496.456L492.676 488.623L520.344 522.567H534.178L538.789 509.511L561.846 512.122L571.069 506.9L580.292 510.817L586.479 501.678L598.738 513.428L612.572 506.9L621.795 518.65L635.629 512.122L663.297 518.65" stroke="#C1F17E" stroke-width="1.02205" stroke-linecap="round"/>
<path d="M405.502 605.303V604.461H405.865C406.178 604.461 406.426 604.37 406.609 604.187C406.792 603.998 406.884 603.744 406.884 603.425V598.704H407.761V603.407C407.761 603.791 407.681 604.125 407.522 604.408C407.368 604.692 407.15 604.913 406.866 605.073C406.583 605.226 406.249 605.303 405.865 605.303H405.502ZM410.513 605.409C410.2 605.409 409.923 605.353 409.681 605.241C409.444 605.123 409.258 604.963 409.123 604.763C408.987 604.556 408.919 604.32 408.919 604.054C408.919 603.8 408.972 603.573 409.078 603.372C409.19 603.165 409.362 602.991 409.592 602.849C409.828 602.708 410.123 602.607 410.478 602.548L412.249 602.256V602.947L410.664 603.213C410.357 603.266 410.132 603.363 409.991 603.505C409.855 603.647 409.787 603.821 409.787 604.027C409.787 604.222 409.864 604.385 410.017 604.515C410.177 604.645 410.374 604.71 410.611 604.71C410.912 604.71 411.172 604.648 411.39 604.523C411.614 604.394 411.789 604.219 411.913 604.001C412.043 603.782 412.108 603.54 412.108 603.275V602.061C412.108 601.801 412.01 601.592 411.815 601.432C411.626 601.267 411.375 601.184 411.062 601.184C410.791 601.184 410.549 601.255 410.336 601.397C410.129 601.533 409.976 601.716 409.875 601.946L409.158 601.574C409.247 601.355 409.388 601.16 409.583 600.989C409.778 600.812 410.005 600.673 410.265 600.573C410.525 600.473 410.797 600.422 411.08 600.422C411.446 600.422 411.768 600.493 412.046 600.635C412.323 600.771 412.539 600.963 412.692 601.211C412.852 601.453 412.931 601.736 412.931 602.061V605.303H412.125V604.399L412.276 604.453C412.175 604.642 412.04 604.807 411.868 604.949C411.697 605.09 411.496 605.203 411.266 605.285C411.036 605.368 410.785 605.409 410.513 605.409ZM414.209 605.303V600.529H415.015V601.459L414.882 601.379C415 601.078 415.189 600.845 415.449 600.679C415.714 600.508 416.024 600.422 416.379 600.422C416.721 600.422 417.025 600.499 417.291 600.653C417.563 600.806 417.775 601.019 417.929 601.29C418.088 601.562 418.168 601.869 418.168 602.212V605.303H417.335V602.477C417.335 602.212 417.288 601.987 417.194 601.804C417.099 601.621 416.963 601.479 416.786 601.379C416.615 601.273 416.417 601.22 416.193 601.22C415.968 601.22 415.768 601.273 415.59 601.379C415.419 601.479 415.283 601.624 415.183 601.813C415.083 601.996 415.032 602.218 415.032 602.477V605.303H414.209Z" fill="#D6DDE6" fill-opacity="0.62"/>
<path d="M527.723 605.303V598.704H531.903V599.501H528.591V601.636H531.593V602.433H528.591V605.303H527.723ZM534.839 605.409C534.378 605.409 533.968 605.3 533.608 605.082C533.248 604.863 532.964 604.565 532.757 604.187C532.551 603.803 532.447 603.375 532.447 602.903C532.447 602.424 532.548 601.999 532.749 601.627C532.955 601.255 533.233 600.963 533.581 600.75C533.935 600.532 534.331 600.422 534.768 600.422C535.122 600.422 535.435 600.487 535.707 600.617C535.985 600.741 536.218 600.912 536.407 601.131C536.602 601.344 536.749 601.589 536.85 601.866C536.956 602.138 537.009 602.421 537.009 602.717C537.009 602.781 537.003 602.855 536.991 602.938C536.986 603.015 536.977 603.089 536.965 603.159H533.05V602.451H536.487L536.097 602.77C536.15 602.463 536.12 602.188 536.008 601.946C535.896 601.704 535.731 601.512 535.512 601.37C535.294 601.228 535.046 601.158 534.768 601.158C534.491 601.158 534.237 601.228 534.006 601.37C533.776 601.512 533.596 601.716 533.466 601.981C533.342 602.241 533.292 602.551 533.315 602.911C533.292 603.26 533.345 603.567 533.475 603.833C533.611 604.092 533.8 604.296 534.042 604.444C534.29 604.585 534.558 604.656 534.848 604.656C535.167 604.656 535.435 604.583 535.654 604.435C535.872 604.287 536.05 604.098 536.185 603.868L536.876 604.222C536.782 604.441 536.634 604.642 536.433 604.825C536.239 605.002 536.005 605.144 535.734 605.25C535.468 605.356 535.17 605.409 534.839 605.409ZM539.325 605.303L537.456 600.529H538.378L539.875 604.568H539.556L541.061 600.529H541.983L540.105 605.303H539.325Z" fill="#D6DDE6" fill-opacity="0.62"/>
<path d="M647.339 605.303V598.704H648.136L650.607 602.22H650.2L652.653 598.704H653.451V605.303H652.574V599.802L652.884 599.9L650.43 603.354H650.359L647.932 599.9L648.207 599.802V605.303H647.339ZM656.218 605.409C655.905 605.409 655.628 605.353 655.386 605.241C655.15 605.123 654.964 604.963 654.828 604.763C654.692 604.556 654.624 604.32 654.624 604.054C654.624 603.8 654.677 603.573 654.783 603.372C654.896 603.165 655.067 602.991 655.297 602.849C655.533 602.708 655.829 602.607 656.183 602.548L657.955 602.256V602.947L656.369 603.213C656.062 603.266 655.838 603.363 655.696 603.505C655.56 603.647 655.492 603.821 655.492 604.027C655.492 604.222 655.569 604.385 655.722 604.515C655.882 604.645 656.08 604.71 656.316 604.71C656.617 604.71 656.877 604.648 657.095 604.523C657.32 604.394 657.494 604.219 657.618 604.001C657.748 603.782 657.813 603.54 657.813 603.275V602.061C657.813 601.801 657.715 601.592 657.52 601.432C657.332 601.267 657.081 601.184 656.768 601.184C656.496 601.184 656.254 601.255 656.041 601.397C655.835 601.533 655.681 601.716 655.581 601.946L654.863 601.574C654.952 601.355 655.093 601.16 655.288 600.989C655.483 600.812 655.711 600.673 655.97 600.573C656.23 600.473 656.502 600.422 656.785 600.422C657.151 600.422 657.473 600.493 657.751 600.635C658.028 600.771 658.244 600.963 658.397 601.211C658.557 601.453 658.637 601.736 658.637 602.061V605.303H657.831V604.399L657.981 604.453C657.881 604.642 657.745 604.807 657.574 604.949C657.402 605.09 657.202 605.203 656.971 605.285C656.741 605.368 656.49 605.409 656.218 605.409ZM659.914 605.303V600.529H660.72V601.406L660.631 601.282C660.743 601.01 660.915 600.809 661.145 600.679C661.375 600.543 661.656 600.475 661.987 600.475H662.279V601.255H661.863C661.526 601.255 661.254 601.361 661.048 601.574C660.841 601.781 660.738 602.076 660.738 602.46V605.303H659.914Z" fill="#D6DDE6" fill-opacity="0.62"/>
<mask id="path-31-inside-3_3_3265" fill="white">
<path d="M696.684 363.804C696.684 356.278 702.785 350.177 710.311 350.177H1007.39C1014.91 350.177 1021.01 356.278 1021.01 363.804V609.096C1021.01 616.622 1014.91 622.723 1007.39 622.723H710.311C702.785 622.723 696.684 616.622 696.684 609.096V363.804Z"/>
</mask>
<path d="M696.684 363.804C696.684 356.278 702.785 350.177 710.311 350.177H1007.39C1014.91 350.177 1021.01 356.278 1021.01 363.804V609.096C1021.01 616.622 1014.91 622.723 1007.39 622.723H710.311C702.785 622.723 696.684 616.622 696.684 609.096V363.804Z" fill="black" fill-opacity="0.17"/>
<path d="M710.311 351.199H1007.39V349.154H710.311V351.199ZM1019.99 363.804V609.096H1022.04V363.804H1019.99ZM1007.39 621.701H710.311V623.745H1007.39V621.701ZM697.706 609.096V363.804H695.662V609.096H697.706ZM710.311 621.701C703.349 621.701 697.706 616.058 697.706 609.096H695.662C695.662 617.186 702.22 623.745 710.311 623.745V621.701ZM1019.99 609.096C1019.99 616.058 1014.35 621.701 1007.39 621.701V623.745C1015.48 623.745 1022.04 617.187 1022.04 609.096H1019.99ZM1007.39 351.199C1014.35 351.199 1019.99 356.842 1019.99 363.804H1022.04C1022.04 355.713 1015.48 349.154 1007.39 349.154V351.199ZM710.311 349.154C702.22 349.154 695.662 355.713 695.662 363.804H697.706C697.706 356.842 703.349 351.199 710.311 351.199V349.154Z" fill="white" fill-opacity="0.2" mask="url(#path-31-inside-3_3_3265)"/>
<path d="M713.871 379.529V370.9H717.091C717.678 370.9 718.195 371.008 718.643 371.224C719.099 371.433 719.454 371.742 719.709 372.151C719.963 372.552 720.091 373.043 720.091 373.622C720.091 374.193 719.96 374.684 719.697 375.093C719.442 375.494 719.091 375.803 718.643 376.02C718.195 376.236 717.678 376.344 717.091 376.344H715.446V379.529H713.871ZM715.446 374.954H717.114C717.4 374.954 717.647 374.9 717.855 374.792C718.064 374.676 718.226 374.518 718.342 374.317C718.458 374.116 718.515 373.884 718.515 373.622C718.515 373.352 718.458 373.12 718.342 372.927C718.226 372.726 718.064 372.572 717.855 372.464C717.647 372.348 717.4 372.29 717.114 372.29H715.446V374.954ZM721.254 379.529V373.228H722.679V374.63L722.563 374.421C722.71 373.95 722.938 373.622 723.247 373.437C723.563 373.251 723.942 373.159 724.382 373.159H724.752V374.502H724.208C723.775 374.502 723.428 374.637 723.165 374.908C722.903 375.17 722.772 375.541 722.772 376.02V379.529H721.254ZM728.668 379.668C728.05 379.668 727.486 379.525 726.977 379.24C726.475 378.954 726.073 378.564 725.772 378.07C725.478 377.576 725.332 377.012 725.332 376.379C725.332 375.745 725.478 375.182 725.772 374.688C726.073 374.193 726.475 373.803 726.977 373.518C727.479 373.232 728.042 373.089 728.668 373.089C729.286 373.089 729.845 373.232 730.347 373.518C730.849 373.803 731.247 374.193 731.54 374.688C731.842 375.174 731.992 375.738 731.992 376.379C731.992 377.012 731.842 377.576 731.54 378.07C731.239 378.564 730.838 378.954 730.336 379.24C729.834 379.525 729.278 379.668 728.668 379.668ZM728.668 378.278C729.008 378.278 729.305 378.197 729.56 378.035C729.822 377.873 730.027 377.649 730.174 377.363C730.328 377.07 730.405 376.742 730.405 376.379C730.405 376.008 730.328 375.684 730.174 375.406C730.027 375.12 729.822 374.896 729.56 374.734C729.305 374.564 729.008 374.479 728.668 374.479C728.32 374.479 728.015 374.564 727.753 374.734C727.49 374.896 727.282 375.12 727.127 375.406C726.98 375.684 726.907 376.008 726.907 376.379C726.907 376.742 726.98 377.07 727.127 377.363C727.282 377.649 727.49 377.873 727.753 378.035C728.015 378.197 728.32 378.278 728.668 378.278ZM733.737 379.529V374.583H732.625V373.228H733.737V373.02C733.737 372.541 733.833 372.135 734.026 371.803C734.227 371.464 734.505 371.205 734.86 371.027C735.216 370.85 735.637 370.761 736.123 370.761C736.216 370.761 736.316 370.769 736.424 370.784C736.54 370.792 736.637 370.803 736.714 370.819V372.128C736.637 372.112 736.563 372.104 736.494 372.104C736.432 372.097 736.374 372.093 736.32 372.093C735.98 372.093 735.718 372.17 735.532 372.325C735.347 372.471 735.254 372.703 735.254 373.02V373.228H738.011V374.583H735.254V379.529H733.737ZM737.443 379.529V373.228H738.972V379.529H737.443ZM743.108 379.599C742.398 379.599 741.845 379.406 741.452 379.02C741.065 378.626 740.872 378.074 740.872 377.363V374.583H739.784V373.228H739.899C740.208 373.228 740.448 373.147 740.618 372.985C740.787 372.823 740.872 372.587 740.872 372.278V371.792H742.39V373.228H743.838V374.583H742.39V377.282C742.39 377.491 742.425 377.668 742.494 377.815C742.571 377.962 742.687 378.074 742.842 378.151C743.004 378.228 743.208 378.267 743.455 378.267C743.51 378.267 743.571 378.263 743.641 378.255C743.718 378.247 743.791 378.24 743.861 378.232V379.529C743.753 379.545 743.629 379.56 743.49 379.576C743.351 379.591 743.224 379.599 743.108 379.599Z" fill="#D6DDE6"/>
<path fill-rule="evenodd" clip-rule="evenodd" d="M991.715 373.666C990.963 373.666 990.353 374.276 990.353 375.029C990.353 375.782 990.963 376.392 991.715 376.392C992.468 376.392 993.078 375.782 993.078 375.029C993.078 374.276 992.468 373.666 991.715 373.666ZM995.122 375.029C995.122 374.276 995.732 373.666 996.485 373.666C997.237 373.666 997.848 374.276 997.848 375.029C997.848 375.782 997.237 376.392 996.485 376.392C995.732 376.392 995.122 375.782 995.122 375.029ZM999.892 375.029C999.892 374.276 1000.5 373.666 1001.25 373.666C1002.01 373.666 1002.62 374.276 1002.62 375.029C1002.62 375.782 1002.01 376.392 1001.25 376.392C1000.5 376.392 999.892 375.782 999.892 375.029Z" fill="#D6DDE6"/>
<path d="M720.033 417.709C718.859 417.709 717.817 417.462 716.905 416.968C716.01 416.458 715.307 415.779 714.797 414.929C714.288 414.064 714.033 413.084 714.033 411.987C714.033 411.431 714.087 410.875 714.195 410.319C714.318 409.763 714.535 409.168 714.844 408.535C715.168 407.902 715.631 407.199 716.234 406.427L721.052 400.172H724.805L718.944 407.701L718.434 407.145C718.651 406.975 718.875 406.844 719.106 406.751C719.338 406.643 719.57 406.566 719.801 406.52C720.048 406.473 720.303 406.45 720.566 406.45C721.616 406.45 722.55 406.69 723.369 407.168C724.187 407.647 724.828 408.304 725.292 409.138C725.77 409.956 726.01 410.883 726.01 411.918C726.01 413.03 725.755 414.026 725.245 414.906C724.736 415.771 724.025 416.458 723.114 416.968C722.218 417.462 721.191 417.709 720.033 417.709ZM720.033 414.86C720.558 414.86 721.029 414.744 721.446 414.512C721.878 414.265 722.218 413.918 722.465 413.47C722.728 413.022 722.859 412.52 722.859 411.964C722.859 411.377 722.728 410.875 722.465 410.458C722.218 410.026 721.886 409.686 721.469 409.439C721.052 409.192 720.573 409.068 720.033 409.068C719.508 409.068 719.029 409.192 718.597 409.439C718.164 409.686 717.817 410.026 717.554 410.458C717.307 410.875 717.183 411.377 717.183 411.964C717.183 412.52 717.307 413.022 717.554 413.47C717.817 413.918 718.164 414.265 718.597 414.512C719.029 414.744 719.508 414.86 720.033 414.86ZM734.942 417.709C733.567 417.709 732.363 417.338 731.328 416.597C730.293 415.856 729.482 414.813 728.896 413.47C728.324 412.126 728.038 410.566 728.038 408.79C728.038 406.999 728.324 405.439 728.896 404.11C729.467 402.782 730.27 401.747 731.305 401.006C732.34 400.265 733.544 399.894 734.919 399.894C736.324 399.894 737.537 400.265 738.556 401.006C739.591 401.747 740.402 402.79 740.988 404.134C741.575 405.462 741.869 407.014 741.869 408.79C741.869 410.566 741.575 412.126 740.988 413.47C740.417 414.798 739.614 415.84 738.579 416.597C737.544 417.338 736.332 417.709 734.942 417.709ZM734.965 414.837C735.753 414.837 736.425 414.597 736.981 414.118C737.537 413.624 737.961 412.929 738.255 412.033C738.564 411.122 738.718 410.041 738.718 408.79C738.718 407.539 738.564 406.466 738.255 405.57C737.961 404.659 737.529 403.964 736.957 403.485C736.401 403.006 735.722 402.767 734.919 402.767C734.147 402.767 733.482 403.006 732.926 403.485C732.37 403.964 731.938 404.659 731.629 405.57C731.336 406.466 731.189 407.539 731.189 408.79C731.189 410.026 731.336 411.099 731.629 412.01C731.938 412.906 732.37 413.601 732.926 414.095C733.498 414.589 734.177 414.837 734.965 414.837ZM745.298 421.045V419.539C745.807 419.416 746.216 419.176 746.525 418.821C746.85 418.481 747.05 418.018 747.128 417.431H745.761V414.188H748.819V416.18C748.819 417.539 748.518 418.628 747.915 419.447C747.328 420.265 746.456 420.798 745.298 421.045ZM759.161 417.709C757.786 417.709 756.582 417.338 755.547 416.597C754.512 415.856 753.701 414.813 753.114 413.47C752.543 412.126 752.257 410.566 752.257 408.79C752.257 406.999 752.543 405.439 753.114 404.11C753.686 402.782 754.489 401.747 755.524 401.006C756.559 400.265 757.763 399.894 759.138 399.894C760.543 399.894 761.756 400.265 762.775 401.006C763.81 401.747 764.62 402.79 765.207 404.134C765.794 405.462 766.088 407.014 766.088 408.79C766.088 410.566 765.794 412.126 765.207 413.47C764.636 414.798 763.833 415.84 762.798 416.597C761.763 417.338 760.551 417.709 759.161 417.709ZM759.184 414.837C759.972 414.837 760.644 414.597 761.2 414.118C761.756 413.624 762.18 412.929 762.474 412.033C762.783 411.122 762.937 410.041 762.937 408.79C762.937 407.539 762.783 406.466 762.474 405.57C762.18 404.659 761.748 403.964 761.176 403.485C760.62 403.006 759.941 402.767 759.138 402.767C758.365 402.767 757.701 403.006 757.145 403.485C756.589 403.964 756.157 404.659 755.848 405.57C755.555 406.466 755.408 407.539 755.408 408.79C755.408 410.026 755.555 411.099 755.848 412.01C756.157 412.906 756.589 413.601 757.145 414.095C757.717 414.589 758.396 414.837 759.184 414.837ZM775.331 417.709C773.957 417.709 772.752 417.338 771.717 416.597C770.683 415.856 769.872 414.813 769.285 413.47C768.713 412.126 768.428 410.566 768.428 408.79C768.428 406.999 768.713 405.439 769.285 404.11C769.856 402.782 770.659 401.747 771.694 401.006C772.729 400.265 773.934 399.894 775.308 399.894C776.714 399.894 777.926 400.265 778.945 401.006C779.98 401.747 780.791 402.79 781.378 404.134C781.965 405.462 782.258 407.014 782.258 408.79C782.258 410.566 781.965 412.126 781.378 413.47C780.806 414.798 780.003 415.84 778.968 416.597C777.934 417.338 776.721 417.709 775.331 417.709ZM775.354 414.837C776.142 414.837 776.814 414.597 777.37 414.118C777.926 413.624 778.351 412.929 778.644 412.033C778.953 411.122 779.107 410.041 779.107 408.79C779.107 407.539 778.953 406.466 778.644 405.57C778.351 404.659 777.918 403.964 777.347 403.485C776.791 403.006 776.111 402.767 775.308 402.767C774.536 402.767 773.872 403.006 773.316 403.485C772.76 403.964 772.327 404.659 772.018 405.57C771.725 406.466 771.578 407.539 771.578 408.79C771.578 410.026 771.725 411.099 772.018 412.01C772.327 412.906 772.76 413.601 773.316 414.095C773.887 414.589 774.567 414.837 775.354 414.837ZM791.502 417.709C790.127 417.709 788.922 417.338 787.888 416.597C786.853 415.856 786.042 414.813 785.455 413.47C784.884 412.126 784.598 410.566 784.598 408.79C784.598 406.999 784.884 405.439 785.455 404.11C786.027 402.782 786.83 401.747 787.864 401.006C788.899 400.265 790.104 399.894 791.478 399.894C792.884 399.894 794.096 400.265 795.116 401.006C796.15 401.747 796.961 402.79 797.548 404.134C798.135 405.462 798.428 407.014 798.428 408.79C798.428 410.566 798.135 412.126 797.548 413.47C796.977 414.798 796.174 415.84 795.139 416.597C794.104 417.338 792.892 417.709 791.502 417.709ZM791.525 414.837C792.312 414.837 792.984 414.597 793.54 414.118C794.096 413.624 794.521 412.929 794.814 412.033C795.123 411.122 795.278 410.041 795.278 408.79C795.278 407.539 795.123 406.466 794.814 405.57C794.521 404.659 794.089 403.964 793.517 403.485C792.961 403.006 792.282 402.767 791.478 402.767C790.706 402.767 790.042 403.006 789.486 403.485C788.93 403.964 788.498 404.659 788.189 405.57C787.895 406.466 787.749 407.539 787.749 408.79C787.749 410.026 787.895 411.099 788.189 412.01C788.498 412.906 788.93 413.601 789.486 414.095C790.058 414.589 790.737 414.837 791.525 414.837Z" fill="#D6DDE6"/>
<path d="M807.897 417.431V415.651H806.117V414.765H807.897V413.002H808.783V414.765H810.546V415.651H808.783V417.431H807.897ZM812.73 417.431V411.718H811.463V410.832H813.766V417.431H812.73ZM817.82 417.537C817.294 417.537 816.833 417.396 816.438 417.112C816.042 416.823 815.732 416.424 815.508 415.916C815.289 415.403 815.18 414.806 815.18 414.127C815.18 413.442 815.289 412.846 815.508 412.338C815.732 411.83 816.039 411.434 816.429 411.151C816.825 410.868 817.285 410.726 817.811 410.726C818.336 410.726 818.794 410.868 819.184 411.151C819.579 411.434 819.886 411.833 820.105 412.347C820.329 412.855 820.442 413.448 820.442 414.127C820.442 414.806 820.332 415.403 820.114 415.916C819.895 416.424 819.588 416.823 819.193 417.112C818.803 417.396 818.345 417.537 817.82 417.537ZM817.82 416.581C818.144 416.581 818.425 416.48 818.661 416.28C818.897 416.079 819.08 415.795 819.21 415.429C819.34 415.063 819.405 414.629 819.405 414.127C819.405 413.625 819.34 413.191 819.21 412.825C819.08 412.459 818.897 412.176 818.661 411.975C818.425 411.774 818.141 411.674 817.811 411.674C817.486 411.674 817.205 411.774 816.969 411.975C816.733 412.176 816.55 412.459 816.42 412.825C816.29 413.191 816.225 413.625 816.225 414.127C816.225 414.623 816.29 415.057 816.42 415.429C816.55 415.795 816.733 416.079 816.969 416.28C817.211 416.48 817.495 416.581 817.82 416.581ZM822.291 417.431L827.659 410.832H828.775L823.407 417.431H822.291ZM823.301 414.18C822.976 414.18 822.684 414.104 822.424 413.95C822.164 413.791 821.955 413.581 821.795 413.321C821.642 413.061 821.565 412.772 821.565 412.453C821.565 412.134 821.642 411.845 821.795 411.585C821.955 411.319 822.164 411.11 822.424 410.956C822.684 410.803 822.976 410.726 823.301 410.726C823.626 410.726 823.918 410.803 824.178 410.956C824.438 411.11 824.644 411.319 824.798 411.585C824.951 411.845 825.028 412.134 825.028 412.453C825.028 412.772 824.951 413.061 824.798 413.321C824.644 413.581 824.438 413.791 824.178 413.95C823.918 414.104 823.626 414.18 823.301 414.18ZM823.301 413.374C823.484 413.374 823.641 413.33 823.77 413.241C823.906 413.153 824.01 413.038 824.08 412.896C824.151 412.754 824.187 412.607 824.187 412.453C824.187 412.294 824.151 412.146 824.08 412.01C824.01 411.868 823.906 411.753 823.77 411.665C823.641 411.576 823.484 411.532 823.301 411.532C823.124 411.532 822.967 411.576 822.832 411.665C822.696 411.753 822.589 411.868 822.513 412.01C822.442 412.146 822.406 412.294 822.406 412.453C822.406 412.607 822.442 412.754 822.513 412.896C822.589 413.038 822.696 413.153 822.832 413.241C822.967 413.33 823.124 413.374 823.301 413.374ZM827.721 417.537C827.396 417.537 827.101 417.461 826.835 417.307C826.575 417.148 826.369 416.938 826.215 416.678C826.062 416.418 825.985 416.129 825.985 415.81C825.985 415.491 826.062 415.202 826.215 414.942C826.369 414.676 826.575 414.467 826.835 414.313C827.101 414.16 827.396 414.083 827.721 414.083C828.046 414.083 828.338 414.16 828.598 414.313C828.858 414.467 829.064 414.676 829.218 414.942C829.371 415.202 829.448 415.491 829.448 415.81C829.448 416.129 829.371 416.418 829.218 416.678C829.064 416.938 828.858 417.148 828.598 417.307C828.338 417.461 828.046 417.537 827.721 417.537ZM827.721 416.731C827.904 416.731 828.061 416.687 828.19 416.599C828.32 416.51 828.421 416.395 828.492 416.253C828.568 416.111 828.607 415.964 828.607 415.81C828.607 415.651 828.568 415.503 828.492 415.367C828.421 415.226 828.32 415.11 828.19 415.022C828.061 414.933 827.904 414.889 827.721 414.889C827.544 414.889 827.387 414.933 827.252 415.022C827.116 415.11 827.009 415.226 826.933 415.367C826.862 415.503 826.826 415.651 826.826 415.81C826.826 415.964 826.862 416.111 826.933 416.253C827.009 416.395 827.116 416.51 827.252 416.599C827.387 416.687 827.544 416.731 827.721 416.731Z" fill="#C1F17E"/>
<path d="M726.161 453.341C725.718 453.341 725.326 453.253 724.983 453.075C724.647 452.898 724.381 452.659 724.186 452.358C723.997 452.051 723.903 451.708 723.903 451.33C723.903 450.905 724.021 450.533 724.257 450.214C724.493 449.895 724.818 449.668 725.231 449.532L725.213 449.754C724.901 449.63 724.655 449.432 724.478 449.16C724.307 448.883 724.221 448.585 724.221 448.266C724.221 447.929 724.304 447.631 724.469 447.371C724.641 447.111 724.871 446.907 725.16 446.76C725.456 446.606 725.789 446.53 726.161 446.53C726.533 446.53 726.864 446.603 727.153 446.751C727.443 446.899 727.67 447.105 727.835 447.371C728.007 447.631 728.092 447.929 728.092 448.266C728.092 448.602 728.001 448.903 727.818 449.169C727.641 449.435 727.404 449.633 727.109 449.763L727.082 449.532C727.502 449.668 727.829 449.898 728.066 450.223C728.302 450.542 728.42 450.911 728.42 451.33C728.42 451.708 728.323 452.051 728.128 452.358C727.939 452.659 727.673 452.898 727.331 453.075C726.994 453.253 726.604 453.341 726.161 453.341ZM726.161 452.588C726.439 452.588 726.681 452.535 726.888 452.429C727.094 452.323 727.254 452.175 727.366 451.986C727.484 451.791 727.543 451.57 727.543 451.322C727.543 451.068 727.484 450.846 727.366 450.657C727.254 450.462 727.094 450.315 726.888 450.214C726.681 450.108 726.439 450.055 726.161 450.055C725.884 450.055 725.639 450.108 725.426 450.214C725.219 450.315 725.06 450.462 724.948 450.657C724.836 450.846 724.779 451.068 724.779 451.322C724.779 451.57 724.836 451.791 724.948 451.986C725.06 452.175 725.219 452.323 725.426 452.429C725.639 452.535 725.884 452.588 726.161 452.588ZM726.161 449.302C726.362 449.302 726.539 449.258 726.693 449.169C726.852 449.081 726.979 448.962 727.074 448.815C727.168 448.661 727.215 448.484 727.215 448.283C727.215 448.083 727.168 447.908 727.074 447.761C726.979 447.613 726.852 447.498 726.693 447.415C726.539 447.327 726.362 447.282 726.161 447.282C725.955 447.282 725.772 447.327 725.612 447.415C725.453 447.498 725.326 447.613 725.231 447.761C725.137 447.908 725.089 448.083 725.089 448.283C725.089 448.484 725.137 448.661 725.231 448.815C725.326 448.962 725.453 449.081 725.612 449.169C725.772 449.258 725.955 449.302 726.161 449.302ZM732.157 453.341C731.632 453.341 731.171 453.199 730.775 452.916C730.386 452.627 730.081 452.228 729.863 451.72C729.645 451.206 729.535 450.61 729.535 449.931C729.535 449.252 729.645 448.658 729.863 448.151C730.081 447.637 730.386 447.238 730.775 446.955C731.165 446.671 731.623 446.53 732.148 446.53C732.674 446.53 733.132 446.671 733.521 446.955C733.911 447.238 734.215 447.637 734.434 448.151C734.658 448.658 734.77 449.252 734.77 449.931C734.77 450.61 734.661 451.206 734.442 451.72C734.224 452.234 733.917 452.633 733.521 452.916C733.132 453.199 732.677 453.341 732.157 453.341ZM732.157 452.535C732.511 452.535 732.819 452.429 733.078 452.216C733.338 451.998 733.539 451.694 733.681 451.304C733.828 450.914 733.902 450.456 733.902 449.931C733.902 449.405 733.828 448.948 733.681 448.558C733.539 448.168 733.335 447.867 733.07 447.654C732.81 447.442 732.503 447.336 732.148 447.336C731.794 447.336 731.487 447.442 731.227 447.654C730.967 447.867 730.764 448.168 730.616 448.558C730.474 448.948 730.403 449.405 730.403 449.931C730.403 450.451 730.474 450.905 730.616 451.295C730.764 451.685 730.967 451.989 731.227 452.207C731.493 452.426 731.803 452.535 732.157 452.535ZM735.989 453.235V446.53H736.813V451.127L736.476 451.047L739.01 448.461H740.064L738.23 450.383L740.188 453.235H739.214L737.424 450.648L737.938 450.622L736.547 452.074L736.813 451.472V453.235H735.989Z" fill="#D6DDE6" fill-opacity="0.62"/>
<path d="M745.742 449.735H1004.32" stroke="#D6DDE6" stroke-opacity="0.2" stroke-width="1.02205"/>
<path d="M726.305 487.146C725.88 487.146 725.502 487.052 725.172 486.863C724.847 486.674 724.59 486.417 724.401 486.092C724.212 485.761 724.118 485.386 724.118 484.967C724.118 484.737 724.144 484.509 724.197 484.285C724.25 484.061 724.336 483.833 724.454 483.603C724.572 483.373 724.723 483.134 724.906 482.886L726.766 480.441H727.811L725.535 483.399L725.375 483.382C725.464 483.263 725.561 483.172 725.668 483.107C725.78 483.042 725.898 482.995 726.022 482.965C726.152 482.936 726.288 482.921 726.429 482.921C726.819 482.921 727.168 483.012 727.475 483.196C727.788 483.373 728.033 483.618 728.21 483.931C728.393 484.244 728.484 484.604 728.484 485.011C728.484 485.419 728.39 485.785 728.201 486.11C728.012 486.429 727.752 486.683 727.422 486.871C727.097 487.055 726.725 487.146 726.305 487.146ZM726.305 486.367C726.553 486.367 726.775 486.311 726.97 486.198C727.165 486.08 727.318 485.918 727.43 485.711C727.548 485.504 727.608 485.274 727.608 485.02C727.608 484.754 727.551 484.524 727.439 484.329C727.327 484.129 727.173 483.969 726.979 483.851C726.784 483.733 726.559 483.674 726.305 483.674C726.057 483.674 725.833 483.733 725.632 483.851C725.431 483.969 725.275 484.129 725.163 484.329C725.051 484.524 724.994 484.754 724.994 485.02C724.994 485.274 725.051 485.504 725.163 485.711C725.281 485.918 725.437 486.08 725.632 486.198C725.833 486.311 726.057 486.367 726.305 486.367ZM732.157 487.146C731.632 487.146 731.171 487.004 730.775 486.721C730.386 486.432 730.081 486.033 729.863 485.525C729.645 485.011 729.535 484.415 729.535 483.736C729.535 483.057 729.645 482.463 729.863 481.955C730.081 481.442 730.386 481.043 730.775 480.76C731.165 480.476 731.623 480.334 732.148 480.334C732.674 480.334 733.132 480.476 733.521 480.76C733.911 481.043 734.215 481.442 734.434 481.955C734.658 482.463 734.77 483.057 734.77 483.736C734.77 484.415 734.661 485.011 734.442 485.525C734.224 486.039 733.917 486.437 733.521 486.721C733.132 487.004 732.677 487.146 732.157 487.146ZM732.157 486.34C732.511 486.34 732.819 486.234 733.078 486.021C733.338 485.803 733.539 485.499 733.681 485.109C733.828 484.719 733.902 484.261 733.902 483.736C733.902 483.21 733.828 482.753 733.681 482.363C733.539 481.973 733.335 481.672 733.07 481.459C732.81 481.247 732.503 481.141 732.148 481.141C731.794 481.141 731.487 481.247 731.227 481.459C730.967 481.672 730.764 481.973 730.616 482.363C730.474 482.753 730.403 483.21 730.403 483.736C730.403 484.256 730.474 484.71 730.616 485.1C730.764 485.49 730.967 485.794 731.227 486.012C731.493 486.231 731.803 486.34 732.157 486.34ZM735.989 487.04V480.334H736.813V484.932L736.476 484.852L739.01 482.265H740.064L738.23 484.188L740.188 487.04H739.214L737.424 484.453L737.938 484.427L736.547 485.879L736.813 485.277V487.04H735.989Z" fill="#D6DDE6" fill-opacity="0.62"/>
<path d="M745.742 483.54H1004.32" stroke="#D6DDE6" stroke-opacity="0.2" stroke-width="1.02205"/>
<path d="M726.916 520.845V519.321H723.674V518.604L726.898 514.246H727.731V518.604H728.59V519.321H727.731V520.845H726.916ZM724.33 518.914L724.206 518.604H726.916V514.972L727.173 515.043L724.33 518.914ZM732.157 520.951C731.632 520.951 731.171 520.809 730.775 520.526C730.386 520.236 730.081 519.838 729.863 519.33C729.645 518.816 729.535 518.22 729.535 517.541C729.535 516.862 729.645 516.268 729.863 515.76C730.081 515.247 730.386 514.848 730.775 514.565C731.165 514.281 731.623 514.139 732.148 514.139C732.674 514.139 733.132 514.281 733.521 514.565C733.911 514.848 734.215 515.247 734.434 515.76C734.658 516.268 734.77 516.862 734.77 517.541C734.77 518.22 734.661 518.816 734.442 519.33C734.224 519.844 733.917 520.242 733.521 520.526C733.132 520.809 732.677 520.951 732.157 520.951ZM732.157 520.145C732.511 520.145 732.819 520.039 733.078 519.826C733.338 519.608 733.539 519.303 733.681 518.914C733.828 518.524 733.902 518.066 733.902 517.541C733.902 517.015 733.828 516.558 733.681 516.168C733.539 515.778 733.335 515.477 733.07 515.264C732.81 515.052 732.503 514.945 732.148 514.945C731.794 514.945 731.487 515.052 731.227 515.264C730.967 515.477 730.764 515.778 730.616 516.168C730.474 516.558 730.403 517.015 730.403 517.541C730.403 518.06 730.474 518.515 730.616 518.905C730.764 519.295 730.967 519.599 731.227 519.817C731.493 520.036 731.803 520.145 732.157 520.145ZM735.989 520.845V514.139H736.813V518.737L736.476 518.657L739.01 516.07H740.064L738.23 517.993L740.188 520.845H739.214L737.424 518.258L737.938 518.232L736.547 519.684L736.813 519.082V520.845H735.989Z" fill="#D6DDE6" fill-opacity="0.62"/>
<path d="M745.742 517.345H1004.32" stroke="#D6DDE6" stroke-opacity="0.2" stroke-width="1.02205"/>
<path d="M724.118 554.65V554.047L725.942 552.072C726.302 551.688 726.589 551.372 726.801 551.124C727.02 550.876 727.179 550.655 727.28 550.46C727.38 550.265 727.43 550.058 727.43 549.84C727.43 549.48 727.324 549.202 727.111 549.007C726.899 548.812 726.618 548.715 726.27 548.715C725.916 548.715 725.615 548.818 725.367 549.025C725.118 549.226 724.947 549.512 724.853 549.884L724.064 549.68C724.141 549.326 724.283 549.019 724.49 548.759C724.696 548.499 724.953 548.299 725.26 548.157C725.567 548.015 725.904 547.944 726.27 547.944C726.672 547.944 727.023 548.024 727.324 548.183C727.631 548.337 727.87 548.553 728.042 548.83C728.219 549.108 728.307 549.429 728.307 549.796C728.307 550.038 728.257 550.274 728.157 550.504C728.056 550.735 727.909 550.98 727.714 551.239C727.519 551.493 727.265 551.789 726.952 552.125L725.322 553.897H728.449V554.65H724.118ZM732.157 554.756C731.632 554.756 731.171 554.614 730.775 554.331C730.386 554.041 730.081 553.643 729.863 553.135C729.645 552.621 729.535 552.025 729.535 551.346C729.535 550.667 729.645 550.073 729.863 549.565C730.081 549.052 730.386 548.653 730.775 548.37C731.165 548.086 731.623 547.944 732.148 547.944C732.674 547.944 733.132 548.086 733.521 548.37C733.911 548.653 734.215 549.052 734.434 549.565C734.658 550.073 734.77 550.667 734.77 551.346C734.77 552.025 734.661 552.621 734.442 553.135C734.224 553.649 733.917 554.047 733.521 554.331C733.132 554.614 732.677 554.756 732.157 554.756ZM732.157 553.95C732.511 553.95 732.819 553.844 733.078 553.631C733.338 553.413 733.539 553.108 733.681 552.719C733.828 552.329 733.902 551.871 733.902 551.346C733.902 550.82 733.828 550.362 733.681 549.973C733.539 549.583 733.335 549.282 733.07 549.069C732.81 548.857 732.503 548.75 732.148 548.75C731.794 548.75 731.487 548.857 731.227 549.069C730.967 549.282 730.764 549.583 730.616 549.973C730.474 550.362 730.403 550.82 730.403 551.346C730.403 551.865 730.474 552.32 730.616 552.71C730.764 553.1 730.967 553.404 731.227 553.622C731.493 553.841 731.803 553.95 732.157 553.95ZM735.989 554.65V547.944H736.813V552.542L736.476 552.462L739.01 549.875H740.064L738.23 551.797L740.188 554.65H739.214L737.424 552.063L737.938 552.037L736.547 553.489L736.813 552.887V554.65H735.989Z" fill="#D6DDE6" fill-opacity="0.62"/>
<path d="M745.742 551.15H1004.32" stroke="#D6DDE6" stroke-opacity="0.2" stroke-width="1.02205"/>
<path d="M737.096 588.561C736.571 588.561 736.11 588.419 735.715 588.136C735.325 587.846 735.021 587.448 734.802 586.94C734.584 586.426 734.474 585.83 734.474 585.151C734.474 584.472 734.584 583.878 734.802 583.37C735.021 582.856 735.325 582.458 735.715 582.174C736.104 581.891 736.562 581.749 737.088 581.749C737.613 581.749 738.071 581.891 738.46 582.174C738.85 582.458 739.154 582.856 739.373 583.37C739.597 583.878 739.709 584.472 739.709 585.151C739.709 585.83 739.6 586.426 739.382 586.94C739.163 587.454 738.856 587.852 738.46 588.136C738.071 588.419 737.616 588.561 737.096 588.561ZM737.096 587.755C737.451 587.755 737.758 587.649 738.018 587.436C738.277 587.217 738.478 586.913 738.62 586.524C738.768 586.134 738.841 585.676 738.841 585.151C738.841 584.625 738.768 584.167 738.62 583.778C738.478 583.388 738.274 583.087 738.009 582.874C737.749 582.662 737.442 582.555 737.088 582.555C736.733 582.555 736.426 582.662 736.166 582.874C735.907 583.087 735.703 583.388 735.555 583.778C735.413 584.167 735.343 584.625 735.343 585.151C735.343 585.67 735.413 586.125 735.555 586.515C735.703 586.904 735.907 587.209 736.166 587.427C736.432 587.646 736.742 587.755 737.096 587.755Z" fill="#D6DDE6" fill-opacity="0.62"/>
<path d="M745.742 584.955H1004.32" stroke="#D6DDE6" stroke-opacity="0.2" stroke-width="1.02205"/>
<rect width="21.5198" height="58.9244" transform="translate(756.501 531.53)" fill="#A7EE43"/>
<path d="M760.823 604.905V604.064H761.186C761.499 604.064 761.747 603.972 761.93 603.789C762.113 603.6 762.204 603.346 762.204 603.027V598.306H763.081V603.01C763.081 603.394 763.002 603.727 762.842 604.011C762.689 604.294 762.47 604.516 762.187 604.675C761.903 604.829 761.57 604.905 761.186 604.905H760.823ZM765.834 605.012C765.521 605.012 765.243 604.955 765.001 604.843C764.765 604.725 764.579 604.566 764.443 604.365C764.307 604.158 764.239 603.922 764.239 603.656C764.239 603.402 764.293 603.175 764.399 602.974C764.511 602.768 764.682 602.593 764.913 602.452C765.149 602.31 765.444 602.21 765.798 602.151L767.57 601.858V602.549L765.984 602.815C765.677 602.868 765.453 602.965 765.311 603.107C765.175 603.249 765.108 603.423 765.108 603.63C765.108 603.825 765.184 603.987 765.338 604.117C765.497 604.247 765.695 604.312 765.931 604.312C766.232 604.312 766.492 604.25 766.711 604.126C766.935 603.996 767.109 603.822 767.233 603.603C767.363 603.385 767.428 603.143 767.428 602.877V601.663C767.428 601.404 767.331 601.194 767.136 601.034C766.947 600.869 766.696 600.786 766.383 600.786C766.111 600.786 765.869 600.857 765.657 600.999C765.45 601.135 765.297 601.318 765.196 601.548L764.479 601.176C764.567 600.958 764.709 600.763 764.904 600.592C765.099 600.414 765.326 600.276 765.586 600.175C765.846 600.075 766.117 600.025 766.401 600.025C766.767 600.025 767.089 600.096 767.366 600.237C767.644 600.373 767.859 600.565 768.013 600.813C768.172 601.055 768.252 601.339 768.252 601.663V604.905H767.446V604.002L767.597 604.055C767.496 604.244 767.36 604.409 767.189 604.551C767.018 604.693 766.817 604.805 766.587 604.888C766.356 604.97 766.106 605.012 765.834 605.012ZM769.529 604.905V600.131H770.335V601.061L770.202 600.981C770.321 600.68 770.51 600.447 770.769 600.282C771.035 600.11 771.345 600.025 771.699 600.025C772.042 600.025 772.346 600.101 772.612 600.255C772.883 600.408 773.096 600.621 773.25 600.893C773.409 601.164 773.489 601.471 773.489 601.814V604.905H772.656V602.08C772.656 601.814 772.609 601.59 772.514 601.406C772.42 601.223 772.284 601.082 772.107 600.981C771.936 600.875 771.738 600.822 771.513 600.822C771.289 600.822 771.088 600.875 770.911 600.981C770.74 601.082 770.604 601.226 770.504 601.415C770.403 601.598 770.353 601.82 770.353 602.08V604.905H769.529Z" fill="#D6DDE6" fill-opacity="0.62"/>
<rect width="21.5198" height="82.4941" transform="translate(799.541 507.96)" fill="#A7EE43"/>
<path d="M803.432 604.905V598.306H807.613V599.103H804.3V601.238H807.303V602.035H804.3V604.905H803.432ZM810.548 605.012C810.088 605.012 809.677 604.902 809.317 604.684C808.957 604.465 808.673 604.167 808.467 603.789C808.26 603.405 808.157 602.977 808.157 602.505C808.157 602.026 808.257 601.601 808.458 601.229C808.664 600.857 808.942 600.565 809.29 600.352C809.645 600.134 810.04 600.025 810.477 600.025C810.832 600.025 811.145 600.09 811.416 600.22C811.694 600.344 811.927 600.515 812.116 600.733C812.311 600.946 812.458 601.191 812.559 601.468C812.665 601.74 812.718 602.024 812.718 602.319C812.718 602.384 812.712 602.458 812.701 602.54C812.695 602.617 812.686 602.691 812.674 602.762H808.759V602.053H812.196L811.806 602.372C811.859 602.065 811.83 601.79 811.717 601.548C811.605 601.306 811.44 601.114 811.221 600.972C811.003 600.831 810.755 600.76 810.477 600.76C810.2 600.76 809.946 600.831 809.715 600.972C809.485 601.114 809.305 601.318 809.175 601.584C809.051 601.843 809.001 602.153 809.025 602.514C809.001 602.862 809.054 603.169 809.184 603.435C809.32 603.695 809.509 603.898 809.751 604.046C809.999 604.188 810.268 604.259 810.557 604.259C810.876 604.259 811.145 604.185 811.363 604.037C811.582 603.89 811.759 603.701 811.895 603.47L812.585 603.825C812.491 604.043 812.343 604.244 812.143 604.427C811.948 604.604 811.714 604.746 811.443 604.852C811.177 604.958 810.879 605.012 810.548 605.012ZM815.035 604.905L813.166 600.131H814.087L815.584 604.17H815.265L816.771 600.131H817.692L815.814 604.905H815.035Z" fill="#D6DDE6" fill-opacity="0.62"/>
<rect width="21.5198" height="115.23" transform="translate(842.582 475.224)" fill="#A7EE43"/>
<path d="M846.134 604.905V598.306H846.932L849.403 601.823H848.995L851.449 598.306H852.246V604.905H851.369V599.405L851.679 599.502L849.226 602.957H849.155L846.728 599.502L847.002 599.405V604.905H846.134ZM855.014 605.012C854.701 605.012 854.424 604.955 854.181 604.843C853.945 604.725 853.759 604.566 853.623 604.365C853.488 604.158 853.42 603.922 853.42 603.656C853.42 603.402 853.473 603.175 853.579 602.974C853.691 602.768 853.863 602.593 854.093 602.452C854.329 602.31 854.624 602.21 854.979 602.151L856.75 601.858V602.549L855.165 602.815C854.858 602.868 854.633 602.965 854.491 603.107C854.356 603.249 854.288 603.423 854.288 603.63C854.288 603.825 854.364 603.987 854.518 604.117C854.677 604.247 854.875 604.312 855.111 604.312C855.413 604.312 855.672 604.25 855.891 604.126C856.115 603.996 856.29 603.822 856.414 603.603C856.544 603.385 856.608 603.143 856.608 602.877V601.663C856.608 601.404 856.511 601.194 856.316 601.034C856.127 600.869 855.876 600.786 855.563 600.786C855.292 600.786 855.049 600.857 854.837 600.999C854.63 601.135 854.477 601.318 854.376 601.548L853.659 601.176C853.747 600.958 853.889 600.763 854.084 600.592C854.279 600.414 854.506 600.276 854.766 600.175C855.026 600.075 855.298 600.025 855.581 600.025C855.947 600.025 856.269 600.096 856.546 600.237C856.824 600.373 857.04 600.565 857.193 600.813C857.353 601.055 857.432 601.339 857.432 601.663V604.905H856.626V604.002L856.777 604.055C856.676 604.244 856.541 604.409 856.369 604.551C856.198 604.693 855.997 604.805 855.767 604.888C855.537 604.97 855.286 605.012 855.014 605.012ZM858.709 604.905V600.131H859.516V601.008L859.427 600.884C859.539 600.612 859.71 600.411 859.941 600.282C860.171 600.146 860.452 600.078 860.782 600.078H861.075V600.857H860.658C860.322 600.857 860.05 600.964 859.843 601.176C859.637 601.383 859.533 601.678 859.533 602.062V604.905H858.709Z" fill="#D6DDE6" fill-opacity="0.62"/>
<rect width="21.5198" height="125.705" transform="translate(885.62 464.749)" fill="#A7EE43"/>
<path d="M888.934 604.905L891.299 598.306H892.326L894.691 604.905H893.761L893.221 603.355H890.404L889.864 604.905H888.934ZM890.679 602.558H892.946L891.688 598.935H891.936L890.679 602.558ZM897.897 605.012C897.513 605.012 897.161 604.926 896.843 604.755C896.53 604.583 896.287 604.341 896.116 604.028L896.231 603.887V604.905H895.425V598.2H896.249V601.158L896.125 600.955C896.302 600.671 896.544 600.447 896.851 600.282C897.158 600.11 897.51 600.025 897.905 600.025C898.354 600.025 898.756 600.134 899.11 600.352C899.47 600.571 899.754 600.869 899.96 601.247C900.167 601.619 900.27 602.044 900.27 602.523C900.27 602.989 900.167 603.411 899.96 603.789C899.754 604.167 899.47 604.465 899.11 604.684C898.756 604.902 898.351 605.012 897.897 605.012ZM897.835 604.214C898.136 604.214 898.404 604.141 898.641 603.993C898.877 603.845 899.06 603.645 899.19 603.391C899.326 603.131 899.394 602.841 899.394 602.523C899.394 602.192 899.326 601.902 899.19 601.654C899.06 601.401 898.877 601.2 898.641 601.052C898.404 600.899 898.136 600.822 897.835 600.822C897.533 600.822 897.262 600.896 897.02 601.043C896.783 601.191 896.594 601.395 896.453 601.654C896.317 601.908 896.249 602.198 896.249 602.523C896.249 602.841 896.317 603.131 896.453 603.391C896.594 603.645 896.783 603.845 897.02 603.993C897.262 604.141 897.533 604.214 897.835 604.214ZM901.351 604.905V600.131H902.157V601.008L902.068 600.884C902.18 600.612 902.352 600.411 902.582 600.282C902.812 600.146 903.093 600.078 903.423 600.078H903.716V600.857H903.299C902.963 600.857 902.691 600.964 902.484 601.176C902.278 601.383 902.174 601.678 902.174 602.062V604.905H901.351Z" fill="#D6DDE6" fill-opacity="0.62"/>
<rect width="21.5198" height="112.175" transform="translate(928.661 478.28)" fill="#A7EE43"/>
<path d="M932.711 604.905V598.306H933.509L935.98 601.823H935.572L938.026 598.306H938.823V604.905H937.946V599.405L938.256 599.502L935.803 602.957H935.732L933.305 599.502L933.579 599.405V604.905H932.711ZM941.591 605.012C941.278 605.012 941.001 604.955 940.758 604.843C940.522 604.725 940.336 604.566 940.2 604.365C940.065 604.158 939.997 603.922 939.997 603.656C939.997 603.402 940.05 603.175 940.156 602.974C940.268 602.768 940.44 602.593 940.67 602.452C940.906 602.31 941.201 602.21 941.556 602.151L943.327 601.858V602.549L941.742 602.815C941.435 602.868 941.21 602.965 941.068 603.107C940.933 603.249 940.865 603.423 940.865 603.63C940.865 603.825 940.941 603.987 941.095 604.117C941.254 604.247 941.452 604.312 941.688 604.312C941.99 604.312 942.249 604.25 942.468 604.126C942.692 603.996 942.867 603.822 942.991 603.603C943.12 603.385 943.185 603.143 943.185 602.877V601.663C943.185 601.404 943.088 601.194 942.893 601.034C942.704 600.869 942.453 600.786 942.14 600.786C941.869 600.786 941.626 600.857 941.414 600.999C941.207 601.135 941.054 601.318 940.953 601.548L940.236 601.176C940.324 600.958 940.466 600.763 940.661 600.592C940.856 600.414 941.083 600.276 941.343 600.175C941.603 600.075 941.874 600.025 942.158 600.025C942.524 600.025 942.846 600.096 943.123 600.237C943.401 600.373 943.617 600.565 943.77 600.813C943.929 601.055 944.009 601.339 944.009 601.663V604.905H943.203V604.002L943.354 604.055C943.253 604.244 943.118 604.409 942.946 604.551C942.775 604.693 942.574 604.805 942.344 604.888C942.114 604.97 941.863 605.012 941.591 605.012ZM945.286 604.905V600.131H946.11V604.905H945.286ZM945.286 599.369V598.306H946.11V599.369H945.286Z" fill="#D6DDE6" fill-opacity="0.62"/>
<rect width="21.5198" height="146.22" transform="translate(971.7 444.235)" fill="#A7EE43"/>
<path d="M975.999 604.905V604.064H976.362C976.675 604.064 976.923 603.972 977.106 603.789C977.289 603.6 977.381 603.346 977.381 603.027V598.306H978.258V603.01C978.258 603.394 978.178 603.727 978.018 604.011C977.865 604.294 977.646 604.516 977.363 604.675C977.079 604.829 976.746 604.905 976.362 604.905H975.999ZM981.302 605.012C980.96 605.012 980.65 604.932 980.372 604.772C980.101 604.613 979.888 604.392 979.734 604.108C979.587 603.819 979.513 603.488 979.513 603.116V600.131H980.337V603.027C980.337 603.264 980.384 603.47 980.479 603.647C980.579 603.825 980.715 603.963 980.886 604.064C981.063 604.164 981.264 604.214 981.488 604.214C981.713 604.214 981.911 604.164 982.082 604.064C982.259 603.963 982.395 603.819 982.489 603.63C982.59 603.441 982.64 603.216 982.64 602.957V600.131H983.472V604.905H982.666V603.975L982.799 604.055C982.687 604.356 982.495 604.592 982.224 604.764C981.958 604.929 981.651 605.012 981.302 605.012ZM984.749 604.905V600.131H985.555V601.061L985.422 600.981C985.54 600.68 985.729 600.447 985.989 600.282C986.254 600.11 986.565 600.025 986.919 600.025C987.261 600.025 987.565 600.101 987.831 600.255C988.103 600.408 988.315 600.621 988.469 600.893C988.628 601.164 988.708 601.471 988.708 601.814V604.905H987.875V602.08C987.875 601.814 987.828 601.59 987.734 601.406C987.639 601.223 987.503 601.082 987.326 600.981C987.155 600.875 986.957 600.822 986.733 600.822C986.508 600.822 986.308 600.875 986.13 600.981C985.959 601.082 985.823 601.226 985.723 601.415C985.623 601.598 985.572 601.82 985.572 602.08V604.905H984.749Z" fill="#D6DDE6" fill-opacity="0.62"/>
</g>
</g>
<path d="M356 167C356 162.582 359.582 159 364 159H618C622.418 159 626 162.582 626 167V204C626 208.418 622.418 212 618 212H364C359.582 212 356 208.418 356 204V167Z" fill="#1E1E1E"/>
<path d="M356 236C356 231.582 359.582 228 364 228H770C774.418 228 778 231.582 778 236V240C778 244.418 774.418 248 770 248H364C359.582 248 356 244.418 356 240V236Z" fill="#1E1E1E"/>
<path d="M356 264C356 259.582 359.582 256 364 256H770C774.418 256 778 259.582 778 264V268C778 272.418 774.418 276 770 276H364C359.582 276 356 272.418 356 268V264Z" fill="#1E1E1E"/>
<path d="M356 292C356 287.582 359.582 284 364 284H556C560.418 284 564 287.582 564 292V296C564 300.418 560.418 304 556 304H364C359.582 304 356 300.418 356 296V292Z" fill="#1E1E1E"/>
</g>
<defs>
<filter id="filter0_ddd_3_3265" x="0.5" y="0.5" width="1161" height="867" filterUnits="userSpaceOnUse" color-interpolation-filters="sRGB">
<feFlood flood-opacity="0" result="BackgroundImageFix"/>
<feColorMatrix in="SourceAlpha" type="matrix" values="0 0 0 0 0 0 0 0 0 0 0 0 0 0 0 0 0 0 127 0" result="hardAlpha"/>
<feOffset dy="12"/>
<feGaussianBlur stdDeviation="13.5"/>
<feColorMatrix type="matrix" values="0 0 0 0 0 0 0 0 0 0 0 0 0 0 0 0 0 0 0.03 0"/>
<feBlend mode="normal" in2="BackgroundImageFix" result="effect1_dropShadow_3_3265"/>
<feColorMatrix in="SourceAlpha" type="matrix" values="0 0 0 0 0 0 0 0 0 0 0 0 0 0 0 0 0 0 127 0" result="hardAlpha"/>
<feOffset dy="50"/>
<feGaussianBlur stdDeviation="25"/>
<feColorMatrix type="matrix" values="0 0 0 0 0 0 0 0 0 0 0 0 0 0 0 0 0 0 0.03 0"/>
<feBlend mode="normal" in2="effect1_dropShadow_3_3265" result="effect2_dropShadow_3_3265"/>
<feColorMatrix in="SourceAlpha" type="matrix" values="0 0 0 0 0 0 0 0 0 0 0 0 0 0 0 0 0 0 127 0" result="hardAlpha"/>
<feOffset dy="112"/>
<feGaussianBlur stdDeviation="33.5"/>
<feColorMatrix type="matrix" values="0 0 0 0 0 0 0 0 0 0 0 0 0 0 0 0 0 0 0.02 0"/>
<feBlend mode="normal" in2="effect2_dropShadow_3_3265" result="effect3_dropShadow_3_3265"/>
<feBlend mode="normal" in="SourceGraphic" in2="effect3_dropShadow_3_3265" result="shape"/>
</filter>
<linearGradient id="paint0_linear_3_3265" x1="534.178" y1="488.832" x2="534.178" y2="590.454" gradientUnits="userSpaceOnUse">
<stop stop-color="#A7EE43"/>
<stop offset="1" stop-color="#D6D7D8" stop-opacity="0"/>
</linearGradient>
<clipPath id="clip0_3_3265">
<rect width="665.014" height="288.9" fill="white" transform="translate(356 342)"/>
</clipPath>
<clipPath id="clip1_3_3265">
<rect width="665.014" height="288.9" fill="white" transform="translate(356 342)"/>
</clipPath>
</defs>
</svg>
